<?xml version="1.0" encoding="UTF-8"?>
<svg xmlns="http://www.w3.org/2000/svg" version="1.1" viewBox="0 0 200 217.9">
  <defs>
    <style>
      .cls-1 {
        fill: #fff;
      }
    </style>
  </defs>
  <!-- Generator: Adobe Illustrator 28.6.0, SVG Export Plug-In . SVG Version: 1.2.0 Build 709)  -->
  <g>
    <g id="Layer_1">
      <path class="cls-1" d="M196.4,167.9c-11.1-26.7-32.3-46.7-57.9-56.7,14.5-11.1,23.4-28.9,23.4-47.8C161.9,27.8,134.1,0,99.6,0s-62.4,27.8-62.4,62.3,8.9,36.7,23.4,47.8c-25.6,10-46.8,30-57.9,56.7-4.5,11.1-3.3,24.5,3.3,34.5,6.7,11.1,18.9,16.7,32.3,16.7h123.6c13.4,0,24.5-6.7,32.3-16.7,6.7-10.1,7.8-22.3,2.2-33.4ZM59.5,62.3c0-22.2,17.8-40,40.1-40s40.1,17.8,40.1,40-17.8,40-40.1,40-40.1-17.8-40.1-40ZM175.3,190.1c-3.3,4.4-7.8,7.8-13.4,7.8H37.2c-5.6,0-10-2.2-13.4-7.8-3.3-4.4-3.3-8.9-1.1-13.3,13.4-32.2,43.4-52.3,76.8-52.3s63.5,20,76.8,51.1c2.3,4.5,1.2,10.1-1,14.5Z"/>
      <circle class="cls-1" cx="100" cy="63.6" r="18.2"/>
    </g>
  </g>
</svg>