<?xml version="1.0" encoding="utf-8"?>
<!-- Generator: Adobe Illustrator 28.5.0, SVG Export Plug-In . SVG Version: 9.03 Build 54727)  -->
<svg version="1.0" id="Layer_1" xmlns="http://www.w3.org/2000/svg" xmlns:xlink="http://www.w3.org/1999/xlink" x="0px" y="0px"
	 viewBox="0 0 200 217.9" style="enable-background:new 0 0 200 217.9;" xml:space="preserve">
<path d="M196.4,167.9c-11.1-26.7-32.3-46.7-57.9-56.7c14.5-11.1,23.4-28.9,23.4-47.8C161.9,27.8,134.1,0,99.6,0
	C65,0,37.2,27.8,37.2,62.3c0,18.9,8.9,36.7,23.4,47.8c-25.6,10-46.8,30-57.9,56.7c-4.5,11.1-3.3,24.5,3.3,34.5
	c6.7,11.1,18.9,16.7,32.3,16.7h123.6c13.4,0,24.5-6.7,32.3-16.7C200.9,191.2,202,179,196.4,167.9z M59.5,62.3
	c0-22.2,17.8-40,40.1-40c22.3,0,40.1,17.8,40.1,40s-17.8,40-40.1,40C77.3,102.3,59.5,84.5,59.5,62.3z M175.3,190.1
	c-3.3,4.4-7.8,7.8-13.4,7.8H37.2c-5.6,0-10-2.2-13.4-7.8c-3.3-4.4-3.3-8.9-1.1-13.3c13.4-32.2,43.4-52.3,76.8-52.3
	c33.4,0,63.5,20,76.8,51.1C178.6,180.1,177.5,185.7,175.3,190.1z"/>
<ellipse cx="100" cy="63.6" rx="18.2" ry="18.2"/>
</svg>
