<?xml version="1.0" encoding="UTF-8"?>
<svg xmlns="http://www.w3.org/2000/svg" version="1.1" viewBox="0 0 200 194.1">
  <defs>
    <style>
      .cls-1 {
        fill: #093;
      }
    </style>
  </defs>
  <!-- Generator: Adobe Illustrator 28.6.0, SVG Export Plug-In . SVG Version: 1.2.0 Build 709)  -->
  <g>
    <g id="Layer_1">
      <path class="cls-1" d="M100,12.1c23.2,0,45.5,8.9,61.9,24.9,16.4,15.9,25.6,37.5,25.6,60.1s-9.2,44.1-25.6,60.1c-16.4,15.8-38.7,24.8-61.9,24.8s-45.5-8.9-61.9-24.9c-16.4-15.9-25.6-37.5-25.6-60.1s9.2-44.1,25.6-60c16.4-15.9,38.7-24.9,61.9-24.9ZM100,194.1c26.5,0,52-10.2,70.7-28.4,18.8-18.2,29.3-42.9,29.3-68.6s-10.5-50.4-29.3-68.6S126.5,0,100,0,48,10.2,29.3,28.4C10.5,46.6,0,71.3,0,97.1s10.5,50.4,29.3,68.6c18.7,18.2,44.2,28.4,70.7,28.4ZM93.8,133.5c0,3.3,2.8,6.1,6.2,6.1s6.2-2.7,6.2-6.1v-30.3h31.2c3.4,0,6.2-2.7,6.2-6.1s-2.8-6.1-6.2-6.1h-31.2v-30.3c0-3.3-2.8-6.1-6.2-6.1s-6.2,2.7-6.2,6.1v30.3h-31.3c-3.4,0-6.2,2.7-6.2,6.1s2.8,6.1,6.2,6.1h31.2v30.3h.1Z"/>
    </g>
  </g>
</svg>