<?xml version="1.0" encoding="utf-8"?>
<!-- Generator: Adobe Illustrator 28.5.0, SVG Export Plug-In . SVG Version: 9.03 Build 54727)  -->
<svg version="1.0" id="Layer_1" xmlns="http://www.w3.org/2000/svg" xmlns:xlink="http://www.w3.org/1999/xlink" x="0px" y="0px"
	 viewBox="0 0 200 194.1" style="enable-background:new 0 0 200 194.1;" xml:space="preserve">
<path d="M100,12.1c23.2,0,45.5,8.9,61.9,24.9c16.4,15.9,25.6,37.5,25.6,60.1s-9.2,44.1-25.6,60.1C145.5,173,123.2,182,100,182
	s-45.5-8.9-61.9-24.9c-16.4-15.9-25.6-37.5-25.6-60.1S21.7,52.9,38.1,37C54.5,21.1,76.8,12.1,100,12.1z M100,194.1
	c26.5,0,52-10.2,70.7-28.4c18.8-18.2,29.3-42.9,29.3-68.6s-10.5-50.4-29.3-68.6S126.5,0,100,0S48,10.2,29.3,28.4
	C10.5,46.6,0,71.3,0,97.1s10.5,50.4,29.3,68.6C48,183.9,73.5,194.1,100,194.1z M93.8,133.5c0,3.3,2.8,6.1,6.2,6.1s6.2-2.7,6.2-6.1
	v-30.3h31.2c3.4,0,6.2-2.7,6.2-6.1s-2.8-6.1-6.2-6.1h-31.2V60.7c0-3.3-2.8-6.1-6.2-6.1s-6.2,2.7-6.2,6.1V91H62.5
	c-3.4,0-6.2,2.7-6.2,6.1s2.8,6.1,6.2,6.1h31.2V133.5z"/>
</svg>
