<?xml version="1.0" encoding="utf-8"?>
<!-- Generator: Adobe Illustrator 28.5.0, SVG Export Plug-In . SVG Version: 9.03 Build 54727)  -->
<svg version="1.0" id="Layer_1" xmlns="http://www.w3.org/2000/svg" xmlns:xlink="http://www.w3.org/1999/xlink" x="0px" y="0px"
	 viewBox="0 0 200 186.5" style="enable-background:new 0 0 200 186.5;" xml:space="preserve">
<path d="M8.4,0C3.7,0,0,3.9,0,8.7c0,4.8,3.7,8.7,8.4,8.7h15.9c1.3,0,2.5,1,2.8,2.4l18.1,98.7c2.3,12.4,12.7,21.3,24.8,21.3h101
	c4.7,0,8.4-3.9,8.4-8.7c0-4.8-3.7-8.7-8.4-8.7h-101c-4,0-7.5-3-8.3-7.1l-1.9-10.4h101c11.4,0,21.4-7.9,24.3-19.4L199.5,30
	c2.4-9.3-4.3-18.4-13.5-18.4H42.1C38.9,4.7,32.1,0,24.3,0H8.4z M45.9,29.1h136.4L168.9,81c-1,3.8-4.3,6.5-8.1,6.5H56.6L45.9,29.1z
	 M61.6,186.5c4.5,0,8.7-1.8,11.9-5.1c3.2-3.3,4.9-7.7,4.9-12.4c0-4.6-1.8-9.1-4.9-12.4c-3.2-3.3-7.4-5.1-11.9-5.1
	c-4.5,0-8.7,1.8-11.9,5.1c-3.2,3.3-4.9,7.7-4.9,12.4c0,4.6,1.8,9.1,4.9,12.4C52.9,184.7,57.2,186.5,61.6,186.5z M179.3,169
	c0-4.6-1.8-9.1-4.9-12.4c-3.2-3.3-7.4-5.1-11.9-5.1c-4.5,0-8.7,1.8-11.9,5.1c-3.2,3.3-4.9,7.7-4.9,12.4c0,4.6,1.8,9.1,4.9,12.4
	c3.2,3.3,7.4,5.1,11.9,5.1c4.5,0,8.7-1.8,11.9-5.1C177.5,178.1,179.3,173.7,179.3,169z"/>
</svg>
