<?xml version="1.0" encoding="utf-8"?>
<!-- Generator: Adobe Illustrator 28.5.0, SVG Export Plug-In . SVG Version: 9.03 Build 54727)  -->
<svg version="1.0" id="Layer_1" xmlns="http://www.w3.org/2000/svg" xmlns:xlink="http://www.w3.org/1999/xlink" x="0px" y="0px"
	 viewBox="0 0 200 186.2" style="enable-background:new 0 0 200 186.2;" xml:space="preserve">
<style type="text/css">
	.st0{clip-path:url(#SVGID_00000021811549249657676440000018407221374947029420_);}
	.st1{fill:#FFFFFF;}
</style>
<g>
	<defs>
		<rect id="SVGID_1_" width="200" height="186.2"/>
	</defs>
	<clipPath id="SVGID_00000140694960222776257140000014441853472432171668_">
		<use xlink:href="#SVGID_1_"  style="overflow:visible;"/>
	</clipPath>
	<g style="clip-path:url(#SVGID_00000140694960222776257140000014441853472432171668_);">
		<path class="st1" d="M8.3,0C3.7,0,0,3.9,0,8.7c0,4.8,3.7,8.7,8.3,8.7h15.8c1.3,0,2.5,1,2.7,2.4l17.9,98.6
			c2.3,12.4,12.6,21.3,24.5,21.3h100.1c4.6,0,8.3-3.9,8.3-8.7c0-4.8-3.7-8.7-8.3-8.7H69.3c-4,0-7.4-3-8.2-7.1l-1.9-10.4h100.2
			c11.3,0,21.2-7.9,24.1-19.4L197.8,30c2.4-9.2-4.3-18.3-13.4-18.3H41.7C38.5,4.7,31.8,0,24.1,0H8.3z M45.5,29.1h135.3l-13.3,51.7
			c-1,3.8-4.3,6.5-8.1,6.5H56.1L45.5,29.1z M61.1,186.2c4.4,0,8.7-1.8,11.8-5.1c3.1-3.3,4.9-7.7,4.9-12.3c0-4.6-1.8-9.1-4.9-12.3
			c-3.1-3.3-7.4-5.1-11.8-5.1s-8.7,1.8-11.8,5.1c-3.1,3.3-4.9,7.7-4.9,12.3c0,4.6,1.8,9.1,4.9,12.3
			C52.5,184.4,56.7,186.2,61.1,186.2z M177.8,168.8c0-4.6-1.8-9.1-4.9-12.3c-3.1-3.3-7.4-5.1-11.8-5.1c-4.4,0-8.7,1.8-11.8,5.1
			c-3.1,3.3-4.9,7.7-4.9,12.3c0,4.6,1.8,9.1,4.9,12.3c3.1,3.3,7.4,5.1,11.8,5.1c4.4,0,8.7-1.8,11.8-5.1
			C176,177.8,177.8,173.4,177.8,168.8z"/>
	</g>
</g>
</svg>
