<?xml version="1.0" encoding="UTF-8"?>
<svg xmlns="http://www.w3.org/2000/svg" xmlns:xlink="http://www.w3.org/1999/xlink" version="1.1" viewBox="0 0 200 186.2">
  <defs>
    <style>
      .cls-1 {
        fill: none;
      }

      .cls-2 {
        fill: #063;
      }

      .cls-3 {
        clip-path: url(#clippath);
      }
    </style>
    <clipPath id="clippath">
      <rect class="cls-1" width="200" height="186.2"/>
    </clipPath>
  </defs>
  <!-- Generator: Adobe Illustrator 28.6.0, SVG Export Plug-In . SVG Version: 1.2.0 Build 709)  -->
  <g>
    <g id="Layer_1">
      <g class="cls-3">
        <path class="cls-2" d="M8.3,0C3.7,0,0,3.9,0,8.7s3.7,8.7,8.3,8.7h15.8c1.3,0,2.5,1,2.7,2.4l17.9,98.6c2.3,12.4,12.6,21.3,24.5,21.3h100.1c4.6,0,8.3-3.9,8.3-8.7s-3.7-8.7-8.3-8.7h-100c-4,0-7.4-3-8.2-7.1l-1.9-10.4h100.2c11.3,0,21.2-7.9,24.1-19.4l14.3-55.4c2.4-9.2-4.3-18.3-13.4-18.3H41.7C38.5,4.7,31.8,0,24.1,0h-15.8ZM45.5,29.1h135.3l-13.3,51.7c-1,3.8-4.3,6.5-8.1,6.5H56.1l-10.6-58.2ZM61.1,186.2c4.4,0,8.7-1.8,11.8-5.1,3.1-3.3,4.9-7.7,4.9-12.3s-1.8-9.1-4.9-12.3c-3.1-3.3-7.4-5.1-11.8-5.1s-8.7,1.8-11.8,5.1-4.9,7.7-4.9,12.3,1.8,9.1,4.9,12.3c3.2,3.3,7.4,5.1,11.8,5.1ZM177.8,168.8c0-4.6-1.8-9.1-4.9-12.3-3.1-3.3-7.4-5.1-11.8-5.1s-8.7,1.8-11.8,5.1-4.9,7.7-4.9,12.3,1.8,9.1,4.9,12.3c3.1,3.3,7.4,5.1,11.8,5.1s8.7-1.8,11.8-5.1c3.1-3.3,4.9-7.7,4.9-12.3Z"/>
      </g>
    </g>
  </g>
</svg>