<?xml version="1.0" encoding="UTF-8"?>
<svg xmlns="http://www.w3.org/2000/svg" version="1.1" viewBox="0 0 200 200">
  <defs>
    <style>
      .cls-1 {
        fill: #093;
      }
    </style>
  </defs>
  <!-- Generator: Adobe Illustrator 28.6.0, SVG Export Plug-In . SVG Version: 1.2.0 Build 709)  -->
  <g>
    <g id="Layer_1">
      <polygon class="cls-1" points="82.2 41.5 77.1 46.5 79.6 49 130.7 100 79.7 151 77.2 153.5 82.2 158.6 84.7 156.1 138.3 102.5 140.8 100.1 138.3 97.6 84.7 44 82.2 41.5 82.2 41.5"/>
      <path class="cls-1" d="M100,6c51.8,0,94,42.2,94,94s-42.2,94-94,94S6,151.8,6,100,48.2,6,100,6M100,0C44.8,0,0,44.8,0,100s44.8,100,100,100,100-44.8,100-100S155.2,0,100,0h0Z"/>
    </g>
  </g>
</svg>