<?xml version="1.0" encoding="utf-8"?>
<!-- Generator: Adobe Illustrator 28.5.0, SVG Export Plug-In . SVG Version: 9.03 Build 54727)  -->
<svg version="1.0" id="Layer_1" xmlns="http://www.w3.org/2000/svg" xmlns:xlink="http://www.w3.org/1999/xlink" x="0px" y="0px"
	 viewBox="0 0 200 244.1" style="enable-background:new 0 0 200 244.1;" xml:space="preserve">
<style type="text/css">
	.st0{fill:#00A44B;}
	.st1{fill:#FFFFFF;}
</style>
<path class="st0" d="M168.9,26.2C147.7,7.3,119.9-2.7,91,0.6C46.6,4,9.9,36.2,2.1,77.4c-5.6,26.7,0,53.4,16.7,75.6l56.7,78.9
	c4.4,7.8,14.5,12.2,24.5,12.2s20-4.4,25.6-13.3l56.7-78.9c12.2-16.7,17.8-35.6,17.8-55.6C200,69.6,188.9,44,168.9,26.2z"/>
<path class="st1" d="M99.9,134.1c20.9,0,37.8-16.9,37.8-37.8s-16.9-37.8-37.8-37.8S62.1,75.4,62.1,96.3S79.1,134.1,99.9,134.1z"/>
</svg>
