<?xml version="1.0" encoding="UTF-8"?>
<svg id="grape" xmlns="http://www.w3.org/2000/svg" version="1.1" viewBox="0 0 595.2 685.4">
          <defs>
            <style>
              .cls-1 {
                fill: #932d00;
              }
        
              .cls-1, .g-purple, .white {
                stroke-width: 0px;
              }
        
              .g-purple {
                fill: #6155a2;
              }
        
              .white {
                fill: #fff;
              }

              /* Grape */
              #grape {
                transition: all 0.3s ease-in-out
              }

              /* Grape Animation
              ==================================== */
              #grape:hover {
                /* 1 */
                  #_1-g-eye {
                    animation: g-eye-move-1;
                    animation-duration: 1s;
                    animation-timing-function: ease-in-out;
                    animation-iteration-count: 1;
                  }
                  #_1-gw-eye {
                    animation: gw-eye-move-1;
                    animation-duration: 1s;
                    animation-timing-function: ease-in-out;
                    animation-iteration-count: 1;
                  }

                /* 2 */
                  #_2-g-eye {
                    animation: g-eye-move-2;
                    animation-duration: 1s;
                    animation-timing-function: ease-in-out;
                    animation-iteration-count: 1;
                  }
                  #_2-gw-eye {
                    animation: gw-eye-move-2;
                    animation-duration: 1s;
                    animation-timing-function: ease-in-out;
                    animation-iteration-count: 1;
                  }

                /* 3 */
                  #_3-g-eye {
                    animation: g-eye-move-3;
                    animation-duration: 1s;
                    animation-timing-function: ease-in-out;
                    animation-iteration-count: 1;
                  }
                  #_3-gw-eye {
                    animation: gw-eye-move-3;
                    animation-duration: 1s;
                    animation-timing-function: ease-in-out;
                    animation-iteration-count: 1;
                  }

                /* 4 */
                  #_4-g-eye {
                    animation: g-eye-move-4;
                    animation-duration: 1s;
                    animation-timing-function: ease-in-out;
                    animation-iteration-count: 1;
                  }
                  #_4-gw-eye {
                    animation: gw-eye-move-4;
                    animation-duration: 1s;
                    animation-timing-function: ease-in-out;
                    animation-iteration-count: 1;
                  }

                /* 5 */
                  #_5-g-eye {
                    animation: g-eye-move-5;
                    animation-duration: 1s;
                    animation-timing-function: ease-in-out;
                    animation-iteration-count: 1;
                  }
                  #_5-gw-eye {
                    animation: gw-eye-move-5;
                    animation-duration: 1s;
                    animation-timing-function: ease-in-out;
                    animation-iteration-count: 1;
                  }

                /* 6 */
                  #_6-g-eye {
                    animation: g-eye-move-6;
                    animation-duration: 1s;
                    animation-timing-function: ease-in-out;
                    animation-iteration-count: 1;
                  }
                  #_6-gw-eye {
                    animation: gw-eye-move-6;
                    animation-duration: 1s;
                    animation-timing-function: ease-in-out;
                    animation-iteration-count: 1;
                  }
              }

              /* Grape Eyes Animation Keyframe */
                /* 1 */
                  @keyframes g-eye-move-1 {
                    0%,
                    100% {
                      transform: translateX(0px) translateY(0px);
                    }

                    25%, 75% {
                      transform: translateX(-30px) translateY(10px);
                    }
                  }
                  @keyframes gw-eye-move-1 {
                    0%,
                    100% {
                      transform: translateX(0px) translateY(0px);
                    }

                    25%, 75% {
                      transform: translateX(-15px) translateY(10px);
                    }
                  }

                /* 2 */
                  @keyframes g-eye-move-2 {
                    0%,
                    100% {
                      transform: translateX(0px) translateY(0px);
                    }

                    25%, 75% {
                      transform: translateY(30px) translateX(10px);
                    }
                  }
                  @keyframes gw-eye-move-2 {
                    0%,
                    100% {
                      transform: translateX(0px) translateY(0px);
                    }

                    25%, 75% {
                      transform: translateY(25px) translateX(10px);
                    }
                  }

                /* 3 */
                  @keyframes g-eye-move-3 {
                    0%,
                    100% {
                      transform: translateX(0px) translateY(0px);
                    }

                    25%, 75% {
                      transform: translateY(25px) translateX(-10px);
                    }
                  }
                  @keyframes gw-eye-move-3 {
                    0%,
                    100% {
                      transform: translateX(0px) translateY(0px);
                    }

                    25%, 75% {
                      transform: translateY(32px) translateX(-10px);
                    }
                  }
                
                  /* 4 */
                  @keyframes g-eye-move-4 {
                    0%,
                    100% {
                      transform: translateX(0px) translateY(0px);
                    }

                    25%, 75% {
                      transform: translateY(-15px) translateX(50px);
                    }
                  }
                  @keyframes gw-eye-move-4 {
                    0%,
                    100% {
                      transform: translateX(0px) translateY(0px);
                    }

                    25%, 75% {
                      transform: translateY(-17px) translateX(40px);
                    }
                  }

                  /* 5 */
                  @keyframes g-eye-move-5 {
                    0%,
                    100% {
                      transform: translateX(0px) translateY(0px);
                    }

                    25%, 75% {
                      transform: translateY(-35px) translateX(-30px);
                    }
                  }
                  @keyframes gw-eye-move-5 {
                    0%,
                    100% {
                      transform: translateX(0px) translateY(0px);
                    }

                    25%, 75% {
                      transform: translateY(-32px) translateX(-30px);
                    }
                  }

                  /* 6 */
                  @keyframes g-eye-move-6 {
                    0%,
                    100% {
                      transform: translateX(0px) translateY(0px);
                    }

                    25%, 75% {
                      transform: translateY(-25px) translateX(-20px);
                    }
                  }
                  @keyframes gw-eye-move-6 {
                    0%,
                    100% {
                      transform: translateX(0px) translateY(0px);
                    }

                    25%, 75% {
                      transform: translateY(-30px) translateX(-20px);
                    }
                  }

              #grape:active {
                #g-body,#stem {
                  scale: 0;
                }

                #_1-g-eye, #_1-gw-eye,
                #_2-g-eye, #_2-gw-eye,
                #_3-g-eye, #_3-gw-eye,
                #_4-g-eye, #_4-gw-eye,
                #_5-g-eye, #_5-gw-eye,
                #_6-g-eye, #_6-gw-eye {
                  opacity: 0;
                  scale: 0;
                }

                #g-circle {
                  scale: 3;
                }

                #g-text {
                  scale: 3.2;
                }
              }

              #g-body,#stem {
                transform-origin: center;
                transition: all 0.3s ease-in-out;
              }

              #_1-g-eye, #_1-gw-eye,
              #_2-g-eye, #_2-gw-eye,
              #_3-g-eye, #_3-gw-eye,
              #_4-g-eye, #_4-gw-eye,
              #_5-g-eye, #_5-gw-eye,
              #_6-g-eye, #_6-gw-eye {
                transform-origin: center;
                transition: all 0.3s ease-in-out;
              }

              #g-circle {
                transform-origin: center;
                transition: all 0.3s ease-in-out;
              }

              #g-text {
                transform-origin: center;
                transition: all 0.3s ease-in-out;
              }

              /* ==================================== */
            </style>
          </defs>
          <g id="g-circle">
            <circle class="g-purple" cx="297.6" cy="342.7" r="89.8"/>
          </g>
          <g id="g-text">
            <g>
              <path class="white" d="M286.2,353.9c-.5-5.5-.7-9.2-.7-11.1,0-4.3,2.1-6.5,6.2-6.6h9.6c0,0,.1.2.2.3,0,3,0,5.7-.3,8.2,0,.1-.2.2-.3.3-2.1-.2-4.1-.2-6-.1-3,0-4.4,1.6-4.1,4.6,0,1.4.2,2.9.4,4.4,0,.1,0,.2-.2.4-1.4,0-2.8,0-4.3,0-.3-.1-.4-.3-.6-.5Z"/>
              <path class="white" d="M305.7,354.5c0-.7,0-1.3.2-1.9,0-1.3-1.1-1.8-3.4-1.5-.7.1-1.1.4-1.1.7,0,.6.1,1,.3,1.4,0,.1,0,.2-.1.3-2.3,0-4.4,0-6.3.2-.2,0-.3,0-.3-.2,0-.9,0-1.8,0-2.6,0-1,.9-1.8,2.6-2.4,3.9-1,7.9-.9,12.2.2,2,.6,2.6,2.9,1.8,6.9-.1,1.4-.1,2.6.1,3.5.2.6.5,1,.8,1.1,0,.1.1.2.1.3-.9.9-2.5,1.5-4.6,1.9-.2,0-.4-.1-.4-.3-.1-.1-.3-.3-.5-.6-1.6.4-4.4.6-8.5.4-1.4-.2-2.3-.6-2.8-1.5-.6-.8-.7-2.3-.4-4.4.3-1,1.5-1.6,3.8-1.7,2-.2,4.2-.2,6.6,0ZM305.7,358.5c0-.3,0-.7,0-1v-.7c-.3-.4-1.8-.4-4.3-.2-.7.1-1.2.4-1.3.7-.2.9,0,1.5.6,1.6,2.8.1,4.5,0,5.1-.4Z"/>
              <path class="white" d="M309.4,323.1h0c3-.2,6.1-.2,9.5,0,2.4.2,4.4,1.1,5.7,2.9,1.4,2.4,1.7,5.8,1,10.3-.6,2.1-2.3,3.2-5.2,3.4-3.4.1-6.1.1-8.1,0,0,1.7.3,3.5.9,5.3,0,.3-.3.4-.6.4-3.3-.4-5.7-.6-7.1-.7-.3,0-.5-.1-.4-.4-.4-5.9-.7-12-.7-18.5,0-1.4.6-2.3,1.8-2.6.9,0,2-.1,3.2-.2ZM312.3,334.7c1.3.1,3.1,0,5.5,0,.7-.2,1.2-.6,1.3-1.4.3-1.4,0-2.3-.8-2.6-2.4-.4-4.5-.4-6.3-.1-.1,0,0,1.4.2,4.1Z"/>
              <path class="white" d="M322.3,351.9c0,.7.1,1.3.3,1.7.1.5.5.7,1.1.7,4.8-.3,9.1-.6,12.9-.8.3.1.5.4.8.7,0,1.1,0,1.9,0,2.5,0,1,.1,1.9.2,2.7,0,.3-.2.5-.5.7-5.3,1.2-10.3,1.6-15.1,1-1.7-.2-3.2-.9-4.5-2-1.5-1.3-1.8-5.3-1.1-12,.6-2.3,2-3.7,4.3-4.1,5.1-.8,10.2-.6,15.3.6,1.1.5,1.8,3,2.1,7.5,0,.4-.2.7-.6.9-2,0-3.5.1-4.6.1-3.8.1-7.4,0-10.8,0ZM330.6,349.2c0-.5.1-1.1.2-1.8,0-.3-.4-.5-1.2-.6-2.5-.2-4.6-.2-6.3.2-.5.2-.7.7-.9,1.3,0,.4,0,.8-.1,1.2,2.7,0,5.4,0,8.3-.3Z"/>
              <path class="white" d="M275.5,346.8c-3.2.5-7.4.6-12.8.5-2.3-.1-4-1.1-5.1-3-.9-2.6-1-6.1,0-10.7.7-2.6,3.3-3.9,7.6-4.1,6.8-.4,11.6,0,14.3,1.3,1.6.6,2.4,2.9,2.5,6.8h0c0,6.8-.2,11.6-.3,14.4-.2,1.3-1.5,2.1-3.9,2.5-6.6.3-12.9.2-18.9,0-.3-.1-.4-.3-.5-.5-.7-1.5-1-2.8-1-4.1,0-.3,0-.6.4-.9,5.5.4,11.2.5,17,.1.6-.2.8-.9.8-2.2ZM270,338.8c1-.2,1.6-.6,1.8-1.2.4-1.7.1-2.7-.8-2.9-3.8-.3-5.9,0-6.3.7-.6,1-.6,2-.2,2.9.3.6,2.1.8,5.5.4Z"/>
            </g>
          </g>
          <g id="g-body">
            <g>
              <path class="g-purple" d="M301.4,233.4l-12-20.8c-3.7-6.4-12.9-6.4-16.5,0l-12,20.8c-2.6,4.6-6.9,8-11.9,9.8-37.4,13.2-64.2,48.8-64.3,90.7-.2,51.9,43.2,96.2,95.2,96.9,54,.8,97.9-42.8,97.9-96.6s-26.9-77.9-64.5-91.1c-5-1.8-9.3-5.2-11.9-9.8h0Z"/>
              <path class="g-purple" d="M430.6,376.5l-19-14.6c-5.8-4.5-14.3-1-15.3,6.3l-3.2,23.8c-.7,5.2-3.3,10-7.3,13.6-29.5,26.5-40.7,69.6-24.8,108.4,19.6,48.1,76.7,72.4,124.9,53.2,50.2-19.9,74.2-76.9,53.7-126.6-16-38.9-54.6-61.7-94.3-59.6-5.3.3-10.5-1.2-14.8-4.5h0Z"/>
              <path class="g-purple" d="M286.1,488l-12-20.8c-3.7-6.4-12.9-6.4-16.5,0l-12,20.8c-2.6,4.6-6.9,8-11.9,9.8-37.4,13.2-64.2,48.8-64.3,90.7-.2,51.9,43.2,96.2,95.2,96.9,54,.8,97.9-42.8,97.9-96.5s-26.9-77.9-64.5-91.1c-5-1.8-9.3-5.2-11.9-9.8h0Z"/>
              <path class="g-purple" d="M160.6,364.5l-1.1-23.9c-.3-7.3-8.5-11.6-14.7-7.6l-20.3,12.9c-4.5,2.9-9.8,3.9-15.1,3.2-39.3-5.5-79.4,13.8-98.9,50.8-24.1,46-6,105.3,39.8,129.9,47.5,25.5,106.6,7.2,131.4-40.5,19.4-37.3,12-81.5-15.2-110.6-3.6-3.9-5.9-8.9-6.1-14.2h.2Z"/>
              <path class="g-purple" d="M228.2,161l-23.6-4.7c-5.2-1-9.8-4-13.1-8.1-24.6-31.1-66.9-45-106.6-31.6-49.2,16.6-77,72-61,121.4,16.7,51.3,72.1,78.9,123,61.5,39.8-13.6,65-50.6,65.4-90.4,0-5.3,1.9-10.5,5.4-14.5l15.8-18c4.8-5.5,1.9-14.2-5.3-15.6h0Z"/>
              <path class="g-purple" d="M392.1,161l-30.4.6c-7.3.2-11.8,8.2-8,14.5l15.8,26.1c3.1,5.1,4.3,11.2,3.4,17.1-7.9,47.2,15.2,96.4,61.1,118.9,53.4,26.3,117.2,6.5,146.6-45.2,30.9-54.4,11.2-123.4-43.4-153.4-42.8-23.5-94.4-16.1-128.8,14.9-4.5,4-10.3,6.3-16.3,6.4h0Z"/>
            </g>
          </g>
          <g id="stem">
            <path class="cls-1" d="M371.7,35.5h0c-9.5-9.5-24.8-9.5-34.3,0l-20.9,20.9-49.3-49.3c-9.5-9.5-24.8-9.5-34.3,0h0c-9.5,9.5-9.5,24.8,0,34.3l37.6,37.6v78.1c0,14.8,12,26.8,26.8,26.8s26.8-12,26.8-26.8v-39.6l47.7-47.7c9.5-9.5,9.5-24.8,0-34.3h-.1Z"/>
          </g>
          <g id="_1-gw-eye" data-name="1-gw-eye">
            <path class="white" d="M154.3,143.3c.4-2.9-.2-5-2-6.3-2.2-2-5.9-3.6-11-5-2.6-.7-5.8-1.3-9.3-1.7-4.8-.4-9-.5-12.4,0-1,.1-2.1.3-3,.6-3.9,1-6.4,2.4-7.1,4.2-1.6,3.5-1.6,6.3,0,8.2.9.8,2.2,1.6,3.5,2.3,2.3,1.2,5.1,2.2,8.4,3.1,5.4,1.2,11.4,1.9,18.1,2h.2c4.7.3,8.3-.4,10.7-2,2.4-1.6,3.8-3.4,4-5.2h0Z"/>
          </g>
          <g id="_1-g-eye" data-name="1-g-eye">
            <path class="g-purple" d="M132.4,144.2c0-2.4.1-4.6.7-6.5.6-1.9,1.4-3.3,2.5-4.3.9-.6,2.3-.6,4.1,0,.9.4,1.6,1.2,2.2,2.7s.7,3.4.5,5.7c-.5,3.7-1.6,6.2-3.2,7.3h0c-.6.6-1.7.8-3.2.6-.9,0-1.8-.6-2.7-1.6-.8-.9-1.2-2.3-1.1-4h0Z"/>
          </g>
          <g id="_2-gw-eye" data-name="2-gw-eye">
            <path class="white" d="M564.8,198.6c1.9-2.2,2.5-4.3,1.7-6.4-.7-2.9-3-6.2-6.6-10.1-1.8-2-4.2-4.2-6.9-6.4-3.8-3-7.3-5.3-10.4-6.7-.9-.5-1.9-.9-2.8-1.1-3.9-1.3-6.6-1.4-8.3-.3-3.3,2.1-4.7,4.4-4.4,6.9.3,1.2,1,2.5,1.7,3.8,1.3,2.3,3.1,4.6,5.4,7.1,3.9,3.9,8.6,7.7,14.1,11.5v.2c3.9,2.8,7.3,4.1,10.2,4,2.9,0,5-.8,6.2-2.3h0Z"/>
          </g>
          <g id="_2-g-eye" data-name="2-g-eye">
            <path class="g-purple" d="M545.8,187.5c1.3-2.1,2.6-3.8,4.2-5.1,1.5-1.3,3-2,4.4-2.2,1.1,0,2.3.7,3.5,2.3.6.8.7,1.9.4,3.5s-1.2,3.2-2.6,5c-2.4,2.8-4.7,4.4-6.6,4.5h0c-.8.2-1.8-.2-3-1.2-.8-.6-1.2-1.5-1.4-2.8-.2-1.2.2-2.6,1.2-3.9h0Z"/>
          </g>
          <g id="_3-gw-eye" data-name="3-gw-eye">
            <path class="white" d="M79.1,392.6c-.8-2.8-2.2-4.5-4.3-5-2.8-1-6.8-1-12.1-.2-2.7.4-5.8,1.1-9.2,2.1-4.6,1.5-8.5,3.1-11.4,4.9-.9.5-1.8,1.1-2.5,1.7-3.2,2.5-4.9,4.7-4.9,6.7,0,3.9,1,6.4,3.3,7.5,1.2.4,2.6.6,4.1.7,2.6.2,5.5,0,8.9-.5,5.4-1,11.2-2.8,17.4-5.3h.2c4.4-1.6,7.4-3.7,9-6.1,1.6-2.4,2.2-4.6,1.6-6.4h0Z"/>
          </g>
          <g id="_3-g-eye" data-name="3-g-eye">
            <path class="g-purple" d="M49.4,405.1c-1-2.2-1.7-4.3-1.9-6.3-.2-2,0-3.6.6-4.9.6-.9,1.9-1.5,3.8-1.6,1,0,2,.5,3.1,1.6s2,2.8,2.7,5c1,3.6,1,6.3,0,8h0c-.3.8-1.2,1.4-2.7,1.8-.9.3-1.9.2-3.1-.4-1.1-.5-2-1.6-2.6-3.2h0Z"/>
          </g>
          <g id="_4-gw-eye" data-name="4-gw-eye">
            <path class="white" d="M275.1,294.4c.5-2.9,0-5-1.7-6.4-2.1-2.1-5.7-3.9-10.8-5.5-2.6-.8-5.7-1.5-9.2-2.1-4.8-.7-9-.9-12.4-.6-1,0-2.1.2-3,.4-4,.8-6.5,2.1-7.3,3.9-1.8,3.5-1.9,6.2-.3,8.2.9.9,2.1,1.7,3.4,2.4,2.3,1.3,4.9,2.4,8.2,3.4,5.3,1.5,11.3,2.4,18,2.8h.2c4.7.6,8.3,0,10.8-1.5,2.5-1.5,4-3.2,4.2-5.1h0Z"/>
          </g>
          <g id="_4-g-eye" data-name="4-g-eye">
            <path class="g-purple" d="M242.9,292.6c0-2.4.4-4.6,1-6.5.7-1.9,1.6-3.2,2.7-4.1.9-.5,2.4-.5,4.1.2.9.4,1.6,1.3,2.1,2.8s.6,3.4.2,5.7c-.7,3.7-1.9,6.1-3.5,7.2h0c-.6.6-1.7.7-3.2.4-.9-.1-1.8-.7-2.6-1.7-.8-.9-1.1-2.3-.9-4h0Z"/>
          </g>
          <g id="_5-gw-eye" data-name="5-gw-eye">
            <path class="white" d="M510.7,518.5c-1.4-2.6-3.1-4-5.2-4-2.9-.4-6.9.4-11.9,2.3-2.6.9-5.5,2.3-8.6,3.9-4.2,2.4-7.7,4.8-10.2,7.1-.8.7-1.5,1.4-2.1,2.2-2.6,3.1-3.8,5.6-3.4,7.6.7,3.8,2.3,6.1,4.8,6.7,1.3.1,2.7,0,4.2-.2,2.6-.3,5.4-1.1,8.6-2.3,5.1-2.1,10.4-5,15.9-8.7h.2c4-2.5,6.5-5.2,7.6-7.9,1.1-2.7,1.2-5,.3-6.6h-.1Z"/>
          </g>
          <g id="_5-g-eye" data-name="5-g-eye">
            <path class="g-purple" d="M494.3,531.2c-1.4-1.9-2.5-3.9-3.1-5.8-.6-1.9-.7-3.5-.4-4.9.4-1,1.6-1.9,3.4-2.3,1-.2,2.1,0,3.4.9s2.5,2.3,3.7,4.3c1.7,3.3,2.3,6,1.6,7.8h0c-.1.8-.9,1.6-2.3,2.3-.8.5-1.8.6-3.1.2-1.2-.3-2.3-1.2-3.2-2.6h0Z"/>
          </g>
          <g id="_6-gw-eye" data-name="6-gw-eye">
            <path class="white" d="M284.5,658.9c.5-2.9,0-5-1.6-6.4-2-2.2-5.6-4-10.7-5.6-2.6-.9-5.7-1.6-9.2-2.3-4.8-.7-9-1.1-12.4-.8-1,0-2.1.2-3,.4-4,.8-6.5,2-7.4,3.8-1.8,3.4-2,6.2-.4,8.2.9.9,2,1.7,3.3,2.5,2.2,1.4,4.9,2.5,8.2,3.6,5.3,1.5,11.3,2.6,17.9,3.1h.2c4.6.6,8.3.1,10.8-1.3,2.5-1.4,4-3.1,4.3-5h0Z"/>
          </g>
          <g id="_6-g-eye" data-name="6-g-eye">
            <path class="g-purple" d="M252.3,656.7c.1-2.4.4-4.6,1.1-6.5.7-1.9,1.6-3.2,2.7-4.1.9-.5,2.4-.5,4.1.3.9.5,1.6,1.3,2,2.8s.5,3.4.2,5.7c-.7,3.7-2,6.1-3.6,7.1h0c-.6.6-1.7.7-3.2.4-.9-.1-1.8-.7-2.6-1.8-.8-.9-1.1-2.3-.9-4h0Z"/>
          </g>

          <script>
let svg = document.querySelector("#grape");

function logID() {
console.log(this.id);
}

svg.addEventListener("click", logID);
</script>
        </svg>