<?xml version="1.0" encoding="UTF-8"?>
<svg id="ic-mys" xmlns="http://www.w3.org/2000/svg" version="1.1" viewBox="0 0 500 500">
  <defs>
    <style>
      .cls-1 {
        fill: #000;
      }

      .cls-1, .cls-2 {
        stroke-width: 0px;
      }

      .cls-2 {
        fill: #fff;
      }

      .cls-3 {
        opacity: 0;
      }

      #ic-mys {
        transform-origin: center;
        transition: all .3s ease-in-out;
      }

      #ic-mys:hover {
        scale: 1.05;
        #eyes {
    animation: eyes-moving;
    animation-duration: 1s;
    animation-timing-function: ease-in-out;
    animation-iteration-count: 1;
        }
      }

@keyframes eyes-moving {
  0%,
  100% {
    transform: translateX(0px);
  }

  10%,
  70% {
    transform: translateX(10px);
  }
}

        #body,
        #eyes,
        #tail,
        .cls-3
        {
          transform-origin: center;
          transition: all .3s ease-in-out;
        }

                #circle {
                            transform-origin: center;
          transition: all .2s ease-in-out;
                }


      #ic-mys:active {
        #body,
        #eyes,
        #tail {
          scale: 0;
        }
        .cls-3 {
        opacity: 1;
        }
        #circle {
        scale: 4.1;
        }

      }

    </style>
  </defs>
  <path id="body" class="cls-1" d="M115,251.1l-56.5-5.1c-19.2-1.7-27.7-25-14.2-38.7l108.1-109.4c12-12.2,32.7-7.2,37.9,9.1l35.3,111.7c5,15.8,24.7,21.2,37,10l70.9-64.4c13.9-12.6,36.3-3.9,38,14.8l8.5,92.6c1.1,12.3,11.9,21.5,24.3,20.6h0c23.3-1.6,33.7,28.7,14.2,41.6l-69.9,46.5c-12.3,8.2-29.1,2.6-34.1-11.4l-17.7-50c-5.2-14.8-23.5-20-35.7-10.2l-53,42.6c-11.3,9.1-28.1,5.4-34.6-7.6l-40.1-80.5c-3.5-7.1-10.5-11.8-18.3-12.5Z"/>
  <circle id="tail" class="cls-1" cx="449.3" cy="298.3" r="12.9"/>
  <g id="eyes">
    <g>
      <circle class="cls-2" cx="161.6" cy="152.5" r="20.7"/>
      <circle class="cls-1" cx="162" cy="152.2" r="12.9"/>
    </g>
  </g>
  <g id="circle" data-name="circle">
    <g class="cls-3">
      <circle class="cls-1" cx="250" cy="250" r="50"/>
      <path class="cls-2" d="M227.3,241.4c1.5-.8,3.5-1.2,5.9-1.1,3.4.5,5.1,2.4,5.1,5.7,0,3.2,0,6-.1,8.4-.1.2-.3.3-.6.3-.5,0-3.1,0-7.8-.3-.2,0-.4-.1-.4-.2.9-4.4,1-8,.4-10.9-.2-.3-.5-.4-.9-.3-.4,0-.7.3-1.1.7,0,4.3,0,7.8,0,10.5,0,.2-.2.3-.4.4-.7,0-2.3,0-5,.3-.2,0-.3,0-.3-.2.2-4.5,0-8.1-.4-10.6-.1-.2-.4-.3-.8-.2-.3,0-.7.2-1.3.6.1,1.2.2,2.6.3,4.2,0,2.2.3,4.1.5,5.4,0,.2,0,.3-.3.4h-4.9c-.5,0-.7-.2-.8-.5,0-2.4,0-4.4.2-6.2.1-1.6.1-3.1,0-4.3,0-.9-.1-1.8-.2-2.6,0-.2.2-.3.7-.3l3.1-.4c.3,0,.4.2.4.4.2.4.3.9.4,1.4,1.6-.9,3.2-1.3,4.6-1.5,1.6,0,2.7.2,3.4.9Z"/>
      <path class="cls-2" d="M247,246.6c0,0,0-.2,0-.3.2-.9.5-2.1,1-3.7,0,0,0-.1.1-.1,1.1,0,1.8,0,2.2.1.1.2-.1,1.2-.8,3.1-.6,2.3-1,3.6-1.1,4-.4,1.1-1.1,1.5-2.3,1.3-1.6-.3-3.8-.9-6.5-1.8,0,0-.1-.1-.1-.2,0-.6,0-1.1,0-1.5,0-.1,0-.2.2-.3,2.5.9,4.5,1.4,5.9,1.7.4,0,.7-.1.9-.6-1.4-.1-2.6-.3-3.5-.6-1.7-.6-2.3-1.7-1.8-3.2.5-1.4.9-2.6,1.2-3.6,0,0,.1,0,.3,0,.8.2,1.9.5,3.1.8,0,0,.1,0,.1.2-.9,1.9-1.3,3.3-1.4,4.1,0,.3.2.5.6.6.2,0,.8,0,1.7,0Z"/>
      <path class="cls-2" d="M246,258.2c-1.4.3-2.9.2-4.5,0-.1,0-.2-.2-.3-.4-.2-.6-.2-.9-.2-1,0-.1.2-.2.5-.2h1.3c.4,0,.5-.2.2-.5-1.4-.9-1.9-1.8-1.6-2.9.3-.7.9-1.1,2-1.4,1.6-.3,2.9-.3,4.1.1,0,0,.1,0,.2.2.1.7.2,1.6.2,2.7-.1,0-.2.1-.4.1h-1.8c-.2,0-.2,0-.3.1,1.1.9,1.7,1.7,1.6,2.2-.1.5-.5.7-1,.9Z"/>
      <path class="cls-2" d="M253.8,249.7c-.1.6-.2,1.2-.3,1.8,0,.1,0,.2.3.3,1.3.2,2.3.3,3.1.3,1.1,0,1.7,0,1.7.3-.1,1.3-.3,2.3-.5,3,0,0,0,.1-.2.1-3.2.2-5.6-.2-7.3-1-.5-.3-.6-1-.5-2.1.2-1.7.8-4.3,1.7-7.7h.1c.8-.3,1.7-.2,2.7,0,0,0,.1,0,.1.1-.1.8-.3,1.5-.4,2.1,0,.4.2.5.7.5.9,0,1.8.1,2.6.3.1,0,.2.2.2.3,0,1-.2,1.7-.3,2.1,0,0-.2.1-.3.1-1.2-.1-2.3-.3-3.4-.5Z"/>
      <path class="cls-2" d="M258,244.7c0,.2,0,.3,0,.5,0,.1.1.2.3.2,1.3,0,2.5-.2,3.6-.2,0,0,.1.1.2.2,0,.3,0,.5,0,.7,0,.3,0,.5,0,.7,0,0,0,.1-.1.2-1.5.3-2.8.4-4.2.3-.5,0-.9-.2-1.2-.6-.4-.4-.5-1.5-.3-3.3.2-.6.6-1,1.2-1.1,1.4-.2,2.8-.2,4.3.2.3.1.5.8.6,2.1,0,.1,0,.2-.2.2-.5,0-1,0-1.3,0-1.1,0-2.1,0-3,0ZM260.3,244c0-.1,0-.3,0-.5,0,0-.1-.1-.3-.2-.7,0-1.3,0-1.7,0-.1,0-.2.2-.2.4,0,.1,0,.2,0,.3.7,0,1.5,0,2.3,0Z"/>
      <path class="cls-2" d="M259.9,254.7c-.2-1.9-.3-3.2-.2-3.9,0-1.5.7-2.3,2.2-2.3h3.4s0,0,0,.1c0,1.1,0,2-.1,2.9,0,0,0,0-.1.1-.7,0-1.4,0-2.1,0-1.1,0-1.6.6-1.4,1.6,0,.5,0,1,.2,1.5,0,0,0,0,0,.1-.5,0-1,0-1.5,0,0,0-.2,0-.2-.2Z"/>
      <path class="cls-2" d="M277.2,250.7c0-.2,0-.3,0-.5,0-1.6,0-3.7.3-6.5,0-.1,0-.2.2-.3,1.8-.5,3-.8,3.8-.6.3.3.3,2.1-.1,5.4-.2,4.1-.3,6.5-.3,7.1-.2,1.9-1.3,3-3.4,3.1-2.9,0-6.7-.1-11.6-.6-.2,0-.2-.2-.3-.3-.4-.9-.6-1.8-.5-2.5,0-.2,0-.3.2-.5,4.5.5,8,.7,10.5.6.7,0,1.1-.5,1.3-1.4-2.4.3-4.4.4-6,.3-3.1-.4-4.5-1.9-4.2-4.7.3-2.5.5-4.7.6-6.5,0-.1.2-.2.4-.3,1.4,0,3.3.1,5.6.2.2,0,.3.1.3.2-.8,3.5-1,6-.8,7.4.2.6.6.8,1.2.8.4,0,1.4-.2,2.8-.5Z"/>
    </g>
  </g>

<script>
let svg = document.querySelector("#ic-mys");

function logID() {
console.log(this.id);
}

svg.addEventListener("click", logID);
</script>
</svg>