<?xml version="1.0" encoding="UTF-8"?>
<svg id="orange" xmlns="http://www.w3.org/2000/svg" version="1.1" viewBox="0 0 533.4 639.2">
          <defs>
            <style>
              .orange {
                fill: #ed6121;
              }
        
              .cls-1, .cls-2, .cls-3 {
                stroke-width: 0px;
              }
        
              .green {
                fill: #50b15d;
              }
        
              .white {
                fill: #fff;
              }

              /* Orange */
              #orange {
                transition: all 0.3s ease-in-out;
              }

              /* Orange Animation
              ==================================== */
              #orange:active {
                #o-body,#o-leaf {
                  scale: 0;
                }

                #o-eye, #ow-eye {
                  opacity: 0;
                  scale: 0;
                }

                #o-circle {
                  scale: 3;
                }

                #o-text {
                  scale: 3.2;
                }
              }

              #orange:hover {
                #o-eye {
                  animation: o-eye-m;
                  animation-duration: 2s;
                  animation-timing-function: ease-in-out;
                  animation-iteration-count: 1;
                }

                #o-leaf {
                  animation: o-leaf-m;
                  animation-duration: 2s;
                  animation-timing-function: ease-in-out;
                  animation-iteration-count: 1;
                }
              }

              @keyframes o-eye-m {
                0%, 100% {
                  transform: translateX(0px) translateY(0px);
                }

                30% {
                  transform: translateX(30px);
                }

                70% {
                  transform: translateX(-20px);
                }
              }

              @keyframes o-leaf-m {
                0%, 100% {
                  transform: translateX(0px) translateY(0px);
                }

                30% {
                  transform: translateY(20px) translateX(-20px);
                }

                70% {
                  transform: translateY(30px) translateX(-20px);
                }
              }

              #o-eye, #ow-eye {
                transform-origin: center;
                transition: all 0.3s ease-in-out;
              }

              #o-leaf, #o-body {
                transform-origin: center;
                transition: all 0.3s ease-in-out;
              }

              #o-circle {
                transform-origin: center;
                transition: all 0.3s ease-in-out;
              }

              #o-text {
                transform-origin: center;
                transition: all 0.3s ease-in-out;
              }

              /* ==================================== */
            </style>
          </defs>
          <g id="o-circle">
            <circle class="orange" cx="266.7" cy="319.6" r="89.8"/>
          </g>
          <g id="o-text">
            <g>
              <path class="white" d="M222.3,309.8c1.5-.8,5.7-1.2,12.4-1.1,1.8,0,3.2.8,4.2,2.3.8,1.2,1,3.9.7,7.9-.4,1.9-2.3,2.9-5.7,3-5.3.3-9.1,0-11.3-1-1.6-.8-2.5-2.8-2.4-6.1,0-2.7.8-4.5,2.2-5.2ZM232.6,318.3c.9-.2,1.4-.5,1.5-1,.3-1.3,0-2.1-.8-2.2-3.4-.3-5.3,0-5.6.6-.4.9-.4,1.7,0,2.5.3.5,2,.6,4.9.1Z"/>
              <path class="white" d="M242.4,321.7c-.5-5.8-.8-9.6-.7-11.6,0-4.5,2.2-6.8,6.5-6.9h10c0,0,.1.2.2.3,0,3.1-.1,6-.3,8.6,0,.1-.2.2-.3.3-2.2-.2-4.3-.2-6.3-.1-3.2,0-4.6,1.7-4.3,4.9,0,1.5.2,3,.5,4.6,0,.1,0,.2-.2.4-1.5,0-3,0-4.5,0-.3-.1-.5-.3-.6-.5Z"/>
              <path class="white" d="M261.8,322.7c0-.6,0-1.3.2-1.8,0-1.2-1-1.7-3.2-1.4-.7.1-1.1.4-1.1.7,0,.5.1,1,.3,1.3,0,.1,0,.2-.1.3-2.1,0-4.1,0-5.9.2-.2,0-.3,0-.3-.2,0-.8,0-1.7,0-2.4,0-.9.8-1.7,2.4-2.2,3.6-.9,7.4-.8,11.4.2,1.9.6,2.4,2.7,1.7,6.4-.1,1.3,0,2.4.1,3.3.2.6.4.9.7,1.1,0,.1.1.2,0,.3-.9.8-2.3,1.4-4.3,1.8-.2,0-.3-.1-.4-.3-.1-.1-.3-.3-.4-.5-1.5.4-4.2.5-7.9.4-1.3-.1-2.2-.6-2.6-1.4-.5-.8-.6-2.1-.3-4.1.3-1,1.4-1.5,3.5-1.6,1.9-.1,3.9-.2,6.2,0ZM261.8,326.4c0-.3,0-.6,0-1v-.6c-.3-.3-1.7-.4-4-.2-.7.1-1.1.3-1.2.7-.2.9,0,1.4.6,1.5,2.6,0,4.2,0,4.7-.3Z"/>
              <path class="white" d="M267.1,298.6c2.9-.4,5.6-.6,8-.5,3.7.5,5.5,2.6,5.5,6.1,0,3.4,0,6.3-.1,8.8-.1.2-.3.3-.6.4-2,0-4.9,0-8.7,0-.2,0-.4-.1-.4-.3.9-4.7,1.1-8.6.5-11.7-.3-.3-.6-.4-.9-.3-.6,0-1.6.3-3.2.7,0,1.4,0,3.1,0,5.1,0,2.4.3,4.4.6,5.8,0,.2,0,.3-.3.4h-4.7c-.5,0-.8,0-.8-.4,0-2.5,0-4.8.2-6.7.1-1.7.1-3.3.1-4.6,0-1-.1-1.9-.2-2.8,0-.2.2-.4.7-.3l3.9-.3c.3,0,.4.2.4.4,0,0,0,.2,0,.3Z"/>
              <path class="white" d="M288.6,333.5c-3.2.5-7.4.6-12.8.5-2.3-.1-4-1.1-5.1-3-.9-2.6-1-6.1,0-10.7.7-2.6,3.3-3.9,7.6-4.1,6.8-.4,11.6,0,14.3,1.3,1.6.6,2.4,2.9,2.5,6.8h0c0,6.8-.2,11.6-.3,14.4-.2,1.3-1.5,2.1-3.9,2.5-6.6.3-12.9.2-18.9,0-.3-.1-.4-.3-.5-.5-.7-1.5-1-2.8-1-4.1,0-.3,0-.6.4-.9,5.5.4,11.2.5,17,.1.6-.2.8-.9.8-2.2ZM283.1,325.6c1-.2,1.6-.6,1.8-1.2.4-1.7.1-2.7-.8-2.9-3.8-.3-5.9,0-6.3.7-.6,1-.6,2-.2,2.9.3.6,2.1.8,5.5.4Z"/>
              <path class="white" d="M302,323.2c0,.5,0,.9.2,1.2,0,.3.3.5.8.5,3.3-.2,6.4-.4,9-.6.2,0,.4.3.5.5,0,.7,0,1.3,0,1.8,0,.7,0,1.3.1,1.9,0,.2-.1.4-.3.5-3.7.9-7.2,1.1-10.5.7-1.2-.1-2.2-.6-3.1-1.4-1-.9-1.3-3.7-.8-8.4.4-1.6,1.4-2.6,3-2.9,3.6-.5,7.2-.4,10.7.4.8.4,1.3,2.1,1.5,5.2,0,.3-.2.5-.4.6-1.4,0-2.5,0-3.2,0-2.7,0-5.2,0-7.6,0ZM307.8,321.3c0-.4,0-.8.1-1.3,0-.2-.3-.4-.8-.4-1.7-.1-3.2-.1-4.4.1-.3.2-.5.5-.6.9,0,.3,0,.6,0,.8,1.9,0,3.8,0,5.8-.2Z"/>
            </g>
          </g>
          <g id="o-body">
            <circle class="orange" cx="266.7" cy="372.5" r="266.7"/>
          </g>
          <g id="o-leaf">
            <path class="green" d="M507.7,42.8h0c-9.9-32-43.9-50-75.9-40.1l-170.2,52.6-25.7-25.7c-20.3-20.3-53.3-20.3-73.6,0h0c-20.3,20.3-20.3,53.3,0,73.6l50.2,50.2c2.7,2.7,5.6,5,8.7,7,15.4,15.6,38.8,22.4,61.2,15.5l185.2-57.2c32-9.9,50-43.9,40.1-75.9h0Z"/>
          </g>
          <g id="ow-eye">
            <g>
              <path class="white" d="M208.1,220.6c-9.2-6.8-27-10.7-53.5-11.6-16.3,0-29.3,1.8-39.1,5.3-9.8,3.6-15.5,7.7-17.1,12.5-3.3,9.4-2.5,16.4,2.4,20.9,7.3,4.9,17.9,8.4,31.7,10.4,14,1.7,29.5,1.8,46.4.2,12.2-.6,21.2-3.2,27.1-7.9,5.9-4.7,8.8-9.4,8.8-14.3.2-7.5-2-12.7-6.7-15.5Z"/>
              <path class="white" d="M339.9,224.5c-9.2-6.8-27-10.7-53.4-11.6-16.2,0-29.3,1.8-39.1,5.3-1.9.7-3.7,1.4-5.3,2.2-.8.4-1.6.8-2.3,1.1-5.2,2.8-8.4,5.8-9.5,9.2-3.3,9.4-2.5,16.4,2.4,20.9,7.3,4.9,17.8,8.4,31.6,10.4,14,1.7,29.5,1.8,46.4.2,12.1-.6,21.1-3.2,27-7.9s8.8-9.4,8.8-14.3c.2-7.5-2-12.7-6.7-15.5Z"/>
            </g>
          </g>
          <g id="o-eye">
            <g>
              <circle class="orange" cx="153.4" cy="230.3" r="5.8"/>
              <circle class="orange" cx="281.5" cy="230.3" r="5.8"/>
            </g>
          </g>
          <script>
let svg = document.querySelector("#orange");

function logID() {
console.log(this.id);
}

svg.addEventListener("click", logID);
</script>
        </svg>