<?xml version="1.0" encoding="UTF-8"?>
<svg id="punch" xmlns="http://www.w3.org/2000/svg" version="1.1" viewBox="0 0 737.5 737.5">
          <defs>
            <style>
              .pc {
                fill: #de3327;
              }
        
              .cls-1, .cls-2 {
                stroke-width: 0px;
              }

              .white {
                fill: #fff
              }

              /* Punch */
              #punch {
                transition: all 0.3s ease-in-out;
              }

              /* Punch Animation
              ==================================== */

              #pw-x-eye, #p-x-eye {
                display: none;
              }

              #punch:hover {
                /* 1 */
                  #p-eye {
                    animation: p-eye;
                    animation-duration: 0.2s;
                    animation-timing-function: ease-in-out;
                    animation-iteration-count: 1;
                    display: none;
                  }
                  #pw-eye {
                    animation: pw-eye;
                    animation-duration: 0.2s;
                    animation-timing-function: ease-in-out;
                    animation-iteration-count: 1;
                    display: none;
                  }

                /* 2 */
                  #p-x-eye {
                    animation: p-x-eye;
                    animation-duration: 0.3s;
                    animation-timing-function: ease-in-out;
                    animation-iteration-count: 1;
                    display: block;
                  }
                  #pw-x-eye {
                    animation: pw-x-eye;
                    animation-duration: 0.3s;
                    animation-timing-function: ease-in-out;
                    animation-iteration-count: 1;
                    display: block;
                  }

                /* Body */
                  #p-body {
                    animation: p-body;
                      animation-duration: 0.6s;
                      animation-timing-function: ease-in-out;
                      animation-iteration-count: 1;
                  }
              }

              /* X_X Eye */
              @keyframes p-x-eye {
                0% {
                  transform: translateX(0px) translateY(0px);
                }

                50% {
                  transform: translateX(10px) translateY(10px) scale(1.1);
                }

                100% {
                  transform: translateX(-10px) translateY(-10px) scale(0.9);
                }
              }

              @keyframes pw-x-eye {
                0% {
                  transform: translateX(0px) translateY(0px);
                }

                50% {
                  transform: translateX(10px) translateY(10px) scale(1.1);
                }

                100% {
                  transform: translateX(-10px) translateY(-10px) scale(0.9);
                }
              }

              /* Normal Eye */
              @keyframes p-eye {
                0% {
                  transform: translateX(0px) translateY(0px);
                }

                100% {
                  opacity: 0;
                }
              }

              @keyframes pw-eye {
                0% {
                  transform: translateX(0px) translateY(0px);
                }

                100% {
                  opacity: 0;
                }
              }

              /* Body */
              @keyframes p-body {
                0% {
                  transform: translateX(0px) translateY(0px) rotate(0);
                }

                50% {
                  scale: 0.9;
                }

                100% {
                  rotate: 60deg;
                  scale: 1;
                }
              }

              #punch:active {
                #p-body {
                  scale: 0;
                }

                #p-eye, #pw-eye,
                #p-x-eye, #pw-x-eye {
                  scale: 0;
                  opacity: 0;
                }

                #p-circle {
                  scale: 3;
                }

                #p-text {
                  scale: 3.2;
                }
              }

              #p-eye, #pw-eye,
              #p-x-eye, #pw-x-eye {
                transform-origin: center;
                transition: all 0.3s ease-in-out;
              }

              #p-body {
                transform-origin: center;
                transition: all 0.3s ease-in-out;
              }

              #p-circle {
                transform-origin: center;
                transition: all 0.3s ease-in-out;
              }

              #p-text {
                transform-origin: center;
                transition: all 0.3s ease-in-out;
              }

              /* ==================================== */
            </style>
          </defs>
          <circle id="p-circle" class="pc" cx="368.7" cy="368.7" r="89.8"/>
          <g id="p-text">
            <path class="white" d="M344.6,353.1c2.8.5,5,1.7,6.5,3.7,1.5,2.5,1.8,6.1,1,10.9-.6,2.2-2.4,3.5-5.5,3.7-3.6.1-6.5.1-8.6,0,0,1.8.3,3.7,1,5.7,0,.3-.3.4-.7.4-3.5-.4-6.1-.7-7.5-.8-.4,0-.5-.2-.5-.4-.4-6.3-.7-12.9-.8-19.7-.1-1.4.5-2.4,1.9-3,3.4-1.2,7.8-1.4,13.2-.5ZM338.1,365.9c1.3.1,3.2,0,5.7,0,.8-.2,1.2-.6,1.4-1.5.3-1.6,0-2.5-.8-2.8-2.7-.5-4.9-.6-6.5-.1-.1,0,0,1.5.2,4.4Z"/>
            <path class="white" d="M353,383.5c0-.5-.1-1.1-.1-1.8,0-1.5,0-3.6.2-6.3,0-.1,0-.2.2-.3,1.7-.4,3-.6,3.7-.5.6,0,.6,1.8,0,5.3-.1,1.2-.1,2.3,0,3.3.2,1,.4,1.6.7,1.7,0,0,.1.2,0,.3-.9.4-2.1.7-3.6.9-.2,0-.3,0-.4-.2,0,0,0-.2-.1-.3-2.2.3-4.3.4-6.2.4-2.7-.4-4.1-1.9-4.1-4.5,0-2.5,0-4.6,0-6.4.1-.1.2-.2.4-.3,1.5,0,3.5,0,5.9,0,.2,0,.3,0,.3.2-.7,3.4-.8,6.3-.4,8.6.2.2.4.3.7.2.4,0,1.2-.2,2.5-.5Z"/>
            <path class="white" d="M367.2,364.3c3.5-.5,6.8-.7,9.7-.7,4.4.6,6.7,3.1,6.7,7.4,0,4.1,0,7.6-.2,10.6-.2.2-.4.3-.7.4-2.4,0-5.9,0-10.5,0-.3,0-.5-.2-.5-.3,1.1-5.7,1.3-10.4.6-14.1-.3-.3-.7-.5-1.1-.4-.7.1-2,.4-3.8.9,0,1.7,0,3.7,0,6.2.1,2.9.3,5.3.7,7.1,0,.2,0,.4-.4.5h-5.6c-.6.1-.9,0-1-.5,0-3.1,0-5.8.2-8,.1-2.1.2-4,.1-5.6,0-1.2-.2-2.3-.2-3.4,0-.3.3-.4.9-.4l4.7-.3c.4.1.5.3.5.5,0,.1,0,.2,0,.3Z"/>
            <path class="white" d="M392.5,380.9c-1.2.4-1.5,1.4-.9,3.3.3.7,1.1,1.1,2.4,1.3,2.7.3,5.2.1,7.3-.5.3-.2.6-.3.8-.1l1.4,2.6c0,.2,0,.4,0,.6-4.8,1.1-9.5,1-14.2-.4-1.5-.5-2.3-2.5-2.5-6,.1-3,1-4.9,2.6-5.7,4.5-1.6,9.1-1.7,14-.3.2.1.4.3.4.7l-2.2,4.9c-.2.1-.3.2-.5.2-2.1-.8-5-.9-8.4-.3Z"/>
            <path class="white" d="M394,362.2c0,2.8,0,5.7-.1,8.8,0,.3-.1.4-.5.4-1.5,0-3.1,0-4.9,0-.6-.2-1-.7-1.2-1.3-.1-2.9-.1-5.4,0-7.7,0-4.6-.2-9-.4-13.3.2-.1.3-.2.6-.2,2.5,0,4.4,0,5.7.1,1.3.5,1.9,1.3,1.9,2.6,0,1.5,0,2.7,0,3.9,3.2-.6,6.5-.8,9.8-.7,1.2.1,2.1,1,2.7,2.8.5,5.5.7,9.8.5,13,0,.4-.3.7-.7.9-1.5,0-4,0-7.6.2-.2,0-.3,0-.4-.2.5-3.7.8-7.3,1-10.7,0-.6-.4-1-1.2-1.1-3.3,0-4.9.8-5,2.5Z"/>
          </g>
          <g id="p-body">
            <path class="pc" d="M394.6,28.5l33.9-21.1c24-15,55.8-6.5,69.1,18.5l18.8,35.2c8.8,16.5,26.2,26.5,44.8,25.9l39.9-1.3c28.3-.9,51.5,22.3,50.6,50.6l-1.3,39.9c-.6,18.7,9.4,36,25.9,44.8l35.2,18.8c25,13.3,33.5,45.1,18.5,69.1l-21.1,33.9c-9.9,15.9-9.9,35.9,0,51.8l21.1,33.9c15,24,6.5,55.8-18.5,69.1l-35.2,18.8c-16.5,8.8-26.5,26.2-25.9,44.8l1.3,39.9c.9,28.3-22.3,51.5-50.6,50.6l-39.9-1.3c-18.7-.6-36,9.4-44.8,25.9l-18.8,35.2c-13.3,25-45,33.5-69.1,18.5l-33.9-21.1c-15.9-9.9-35.9-9.9-51.8,0l-33.9,21.1c-24,15-55.8,6.5-69.1-18.5l-18.8-35.2c-8.8-16.5-26.2-26.5-44.8-25.9l-39.9,1.3c-28.3.9-51.5-22.3-50.6-50.6l1.3-39.9c.6-18.7-9.4-36-25.9-44.8l-35.2-18.8c-25-13.3-33.5-45-18.5-69.1l21.1-33.9c9.9-15.9,9.9-35.9,0-51.8l-21.1-33.9c-15-24-6.5-55.8,18.5-69.1l35.2-18.8c16.5-8.8,26.5-26.2,25.9-44.8l-1.3-39.9c-.9-28.3,22.3-51.5,50.6-50.6l39.9,1.3c18.7.6,36-9.4,44.8-25.9l18.8-35.2C253.2.9,284.9-7.6,309,7.4l33.9,21.1c15.9,9.9,35.9,9.9,51.8,0h0Z"/>
          </g>
          <g id="pw-eye">
            <g>
              <path class="white" d="M407.1,582.7h0l-22.7-2.6h0l-64-7.3s0,0,0,0l-36.6-4.2c-2-.2-3.8,1.3-3.6,3.2.6,9,3.3,17.9,8.1,26.2,7.1,12.3,17.9,22,31.3,27.9,19,8.4,40.2,8.1,58.3-.7,15.4-7.5,26.6-20.4,31.5-36.2.2-.8.5-1.6.7-2.4.5-1.8-.9-3.7-3-3.9Z"/>
              <path class="white" d="M261.6,528.3h0c-14.3-16.9-59.6-42.1-75-45.6-10.5-2.4-19.5,4.1-24.2,8.6-.7.6-1.4,1.3-2.1,2.1-1,1-1.5,1.7-1.5,1.7-7.4,9-14.7,24.1-13.3,29.7,3.6,8.8,11,18.1,22.2,28.1,11.6,9.8,25.4,19,41.5,27.7,11.2,6.7,20.9,9.7,28.9,9,8.1-.7,13.5-3.2,16.4-7.6,1-1.5,2.3-3.6,3.5-6.1,0,0,17.8-30.7,3.5-47.6Z"/>
            </g>
          </g>
          <g id="p-eye">
            <g>
              <circle class="pc" cx="335.6" cy="588.2" r="22.9"/>
              <circle class="pc" cx="208.3" cy="533" r="22.9"/>
            </g>
          </g>
          <g id="pw-x-eye">
            <path class="white" d="M269.9,549c-6.3-11.7-23.1-24.6-50.5-38.8-17.2-8.1-31.7-12.6-43.8-13.7-12.1-1.1-20.1.5-24.2,4.7-8.2,8.3-10.8,16.1-7.9,23.3,5.3,8.8,14.6,17.7,28.2,26.7,14,8.7,30.2,16.5,48.8,23.3,13.1,5.4,23.9,7.1,32.4,5.1,8.5-2,13.9-5.6,16.4-10.7,4-7.8,4.2-14.4.6-19.7h0Z"/>
            <path class="white" d="M406.9,606.7c-6.3-11.7-23.1-24.6-50.5-38.8-17.2-8.1-31.7-12.6-43.8-13.7s-20.1.5-24.2,4.7c-8.2,8.3-10.8,16.1-7.9,23.3,5.3,8.8,14.6,17.7,28.2,26.7,14,8.7,30.2,16.5,48.8,23.3,13.1,5.4,23.9,7.1,32.4,5.1,8.5-2,13.9-5.6,16.4-10.7,4-7.8,4.2-14.4.6-19.7h0Z"/>
          </g>
          <g id="p-x-eye">
            <path class="pc" d="M221.9,551.3c-2-3.5-3.7-6.9-5.4-10.4l4.2-1.6c2.6-.9,5.1-1.8,7.7-2.9.7-.2.7-1,0-2.3l-4.4-10.5c-.6-.6-1.1-1-1.5-.7-3,1.4-6.8,3.1-11.5,5l-.7.3-.3-.7c-1.9-4.6-3.3-8.6-4.4-11.7-.2-.5-.7-.7-1.6-.6l-10.6,4.2c-1.3.5-1.9,1-1.6,1.7,1,2.5,2.1,5.1,3.4,7.5.5,1.3,1.1,2.7,1.7,4.2-3.6,1.2-7.3,2.2-11.1,3.4-.5,0-.8.4-.7,1.2l5,12.7c.5,1.4,1.2,2,2.1,1.8,3.7-1.5,7-3,10.1-4.4l3.9,10.3c.5.8,1.4.9,2.8.2l12.5-5.3c.6-.6.8-1,.4-1.4h.1Z"/>
            <path class="pc" d="M361.7,610c-2-3.5-3.7-6.9-5.4-10.4l4.2-1.6c2.6-.9,5.1-1.8,7.7-2.9.7-.2.7-1,0-2.3l-4.4-10.5c-.6-.6-1.1-1-1.5-.7-3,1.4-6.8,3.1-11.5,5l-.7.3-.3-.7c-1.9-4.6-3.3-8.6-4.4-11.7-.2-.5-.7-.7-1.6-.6l-10.6,4.2c-1.3.5-1.9,1-1.6,1.7,1,2.5,2.1,5.1,3.4,7.5.5,1.3,1.1,2.7,1.7,4.2-3.6,1.2-7.3,2.2-11.1,3.4-.5,0-.8.4-.7,1.2l5,12.7c.5,1.4,1.2,2,2.1,1.8,3.7-1.5,7-3,10.1-4.4l3.9,10.3c.5.8,1.4.9,2.8.2l12.5-5.3c.6-.6.8-1,.4-1.4h.1Z"/>
          </g>
<script>
let svg = document.querySelector("#punch");

function logID() {
console.log(this.id);
}

svg.addEventListener("click", logID);
</script>
</svg>