<?xml version="1.0" encoding="UTF-8"?>
<svg id="ic-strawberry" xmlns="http://www.w3.org/2000/svg" version="1.1" viewBox="0 0 500 500">
  <defs>
    <style>
      .cls-1 {
        fill: #d21f34;
      }

      .cls-1, .cls-2, .cls-3, .cls-4 {
        stroke-width: 0px;
      }

      .cls-2 {
        fill: #fff;
      }

      .cls-3 {
        fill: #00a44c;
      }

      .cls-4 {
        fill: #d31f34;
      }

#ic-strawberry {
  transition: all 0.3s ease-in-out;
}

#ic-strawberry:hover {
  scale: 1.05;
  #strawberry-eyes {
    animation: eyes-moving;
    animation-duration: 0.3s;
    animation-timing-function: ease-in-out;
    animation-iteration-count: 1;
  }
}

#ic-strawberry:active {
  #strawberry-body,
  #strawberry-eyes,
  #white-eyes,
  #strawberry-hair {
    scale: 0;
  }

  #circle {
    scale: 3;
  }

  #text {
    scale: 3.2;
  }
}

#strawberry-body,
#strawberry-eyes,
#white-eyes,
#strawberry-hair {
  transition: all 0.3s ease-in-out;
  transform-origin: center;
}

#circle {
  transform-origin: center;
  transition: all 0.3s ease-in-out;
}

#text {
  transform-origin: center;
  transition: all 0.1s ease-in-out;
}

@keyframes eyes-moving {
  0%,
  100% {
    transform: translateX(0px);
  }

  20%,
  70% {
    transform: translateX(20px);
  }
}


    </style>
  </defs>
  <g id="circle">
    <circle class="cls-4" cx="250" cy="250" r="71.3"/>
  </g>
  <g id="text">
    <path class="cls-2" d="M217.6,264.3c-6.5,1.2-13.7,1.2-21.5-.1-.7-.2-1.2-.8-1.5-1.7-.9-2.8-1.2-4.5-.9-5,.4-.5,1.2-.7,2.4-.7h6c2.1-.1,2.3-.9.9-2.2-6.7-4.2-9.2-8.8-7.6-13.8,1.2-3.1,4.4-5.3,9.4-6.6,7.5-1.4,14-1.2,19.4.6.4.2.7.5.9.8.7,3.2,1.1,7.5,1.2,12.9-.5.3-1.1.5-1.7.6l-8.5-.2c-.8,0-1.2.3-1.2.8,5.4,4.3,7.8,7.9,7.5,10.6-.5,2.2-2.1,3.5-4.8,4.1Z"/>
    <path class="cls-2" d="M229.2,256.8c0,.8,0,1.6,0,2.4,0,.2.2.3.4.3,1.7,0,3.1-.1,4.2-.3,1.5-.3,2.2-.3,2.4,0,.1,1.8.1,3.2,0,4.1,0,.1-.1.2-.2.2-4.2,1-7.4,1.1-9.8.3-.7-.3-1.1-1.2-1.1-2.6,0-2.3,0-5.8.5-10.5h.1c1-.6,2.2-.7,3.5-.7.1,0,.2,0,.2.1,0,1,0,2,0,2.9,0,.5.4.7,1,.6,1.2-.2,2.3-.2,3.5-.2.2,0,.3.2.4.3.1,1.3.1,2.3,0,2.8,0,.1-.2.2-.3.3-1.6.1-3.2.2-4.6,0Z"/>
    <path class="cls-2" d="M235.6,254.5c-.2-2.6-.3-4.3-.3-5.2,0-2,1-3.1,2.9-3.1h4.5s0,0,0,.2c0,1.4,0,2.7-.1,3.8,0,0,0,.1-.1.1-1,0-1.9,0-2.8,0-1.4,0-2.1.8-1.9,2.2,0,.7.1,1.3.2,2.1,0,0,0,.1,0,.2-.7,0-1.3,0-2,0-.1,0-.2-.1-.3-.2Z"/>
    <path class="cls-2" d="M245.3,255.8c0-.4,0-.7,0-1,0-.7-.6-.9-1.8-.8-.4,0-.6.2-.6.4,0,.3,0,.5.2.7,0,0,0,.1,0,.2-1.2,0-2.3,0-3.3,0-.1,0-.2,0-.2-.1,0-.5,0-.9,0-1.4,0-.5.5-.9,1.4-1.3,2-.5,4.2-.5,6.4.1,1,.3,1.4,1.5,1,3.6,0,.7,0,1.4,0,1.9.1.3.2.5.4.6,0,0,0,.1,0,.2-.5.5-1.3.8-2.4,1-.1,0-.2,0-.2-.1,0,0-.1-.2-.2-.3-.9.2-2.3.3-4.4.2-.7,0-1.2-.3-1.4-.8-.3-.4-.4-1.2-.2-2.3.1-.6.8-.8,2-.9,1.1,0,2.2,0,3.5,0ZM245.4,257.8c0-.2,0-.4,0-.6v-.4c-.2-.2-.9-.2-2.3,0-.4,0-.6.2-.7.4-.1.5,0,.8.3.8,1.5,0,2.3,0,2.7-.2Z"/>
    <path class="cls-2" d="M247.7,249.7c-.5.2-1.4.3-2.4.3-.9-.1-1.4-.7-1.4-1.7,0-.9,0-1.8,0-2.5,0,0,0,0,.2-.1.2,0,.9,0,2.3,0,0,0,.1,0,.1,0-.3,1.3-.3,2.4-.1,3.2,0,0,.2.1.3,0,.2,0,.3-.1.3-.2,0-1.3,0-2.3,0-3.1,0,0,0,0,.1-.1.2,0,.7,0,1.6,0,0,0,0,0,0,0,0,1.4,0,2.4.1,3.2,0,0,.1,0,.2,0,.3,0,.4-.1.4-.3,0-.3,0-.7,0-1.1,0-.7,0-1.2,0-1.7,0,0,0-.1.1-.1h1.2c.1,0,.2.1.2.2,0,.7,0,1.3,0,1.9,0,.5,0,.9,0,1.3,0,.2-.3.5-.8.7-1.1.3-1.9.3-2.4,0Z"/>
    <path class="cls-2" d="M255.8,246c1-.5,2.7-.7,5.3-.7,3.1,0,4.9.9,5.2,2.7.2,3.3,0,5.5-.6,6.5-.9,1.2-2.2,1.9-3.8,2.1-2.4.2-5.4.2-8.9.1-.6-.1-.9-.6-1-1.6,0-2.7,0-4.5,0-5.4.1-2.5.1-4.7.1-6.8,0-.2,0-.2.3-.3.8,0,1.7,0,2.7,0,.3.1.5.4.6.8,0,.8,0,1.6,0,2.7ZM255.8,249c0,1,0,2,0,3.1,1.3.3,3.1.3,5.5-.1.6-.1.8-1,.6-2.4-.1-.7-.5-1.2-1-1.3-3.1-.2-4.8,0-5.1.7Z"/>
    <path class="cls-2" d="M269.4,247.8c0,.2,0,.3,0,.4,0,.1.1.2.3.2,1.2,0,2.3-.2,3.3-.2,0,0,.1,0,.2.2,0,.3,0,.5,0,.6,0,.2,0,.5,0,.7,0,0,0,.1-.1.2-1.3.3-2.6.4-3.8.2-.4,0-.8-.2-1.1-.5-.4-.3-.5-1.4-.3-3.1.1-.6.5-.9,1.1-1.1,1.3-.2,2.6-.1,3.9.2.3.1.5.8.5,1.9,0,0,0,.2-.2.2-.5,0-.9,0-1.2,0-1,0-1.9,0-2.8,0ZM271.5,247.1c0-.1,0-.3,0-.5,0,0-.1-.1-.3-.2-.6,0-1.2,0-1.6,0-.1,0-.2.2-.2.3,0,.1,0,.2,0,.3.7,0,1.4,0,2.1,0Z"/>
    <path class="cls-2" d="M268,257.2c-.2-1.9-.3-3.3-.2-3.9,0-1.5.7-2.3,2.2-2.3h3.4s0,0,0,.1c0,1.1,0,2-.1,2.9,0,0,0,0-.1.1-.7,0-1.4,0-2.1,0-1.1,0-1.6.6-1.5,1.6,0,.5,0,1,.2,1.5,0,0,0,0,0,.1-.5,0-1,0-1.5,0,0,0-.2,0-.2-.2Z"/>
    <path class="cls-2" d="M274.5,250c-.1-1.4-.2-2.3-.2-2.8,0-1.1.5-1.6,1.6-1.7h2.4s0,0,0,0c0,.8,0,1.4,0,2.1,0,0,0,0,0,0-.5,0-1,0-1.5,0-.8,0-1.1.4-1,1.2,0,.4,0,.7.1,1.1,0,0,0,0,0,0-.3,0-.7,0-1.1,0,0,0-.1,0-.1-.1Z"/>
    <path class="cls-2" d="M293.5,253.1c0-.2,0-.5,0-.7,0-2.3,0-5.4.2-9.5,0-.2,0-.3.2-.4,2.5-.9,4.4-1.2,5.5-1.1.5.4.5,3,0,7.9,0,6-.1,9.4-.1,10.3-.2,2.8-1.8,4.4-4.8,4.7-4.2.2-9.8.1-16.8-.3-.2,0-.4-.2-.4-.4-.6-1.3-.9-2.5-.9-3.7,0-.3,0-.5.3-.8,6.6.5,11.7.7,15.3.4,1,0,1.6-.8,1.8-2.1-3.5.5-6.4.8-8.7.8-4.5-.4-6.6-2.6-6.3-6.6.3-3.7.5-6.8.6-9.5,0-.2.3-.3.6-.4,2.1,0,4.8,0,8.1,0,.3,0,.4.1.4.3-1,5.1-1.3,8.7-.8,10.8.3.8.9,1.2,1.7,1,.6,0,2-.4,4.1-.8Z"/>
  </g>
  <g id="strawberry-body">
    <path class="cls-1" d="M181.6,139.6c64.8-1.9,128.9-9.9,191.7-23.6,37.6-8.3,67.6,1.7,83.8,24.5,16.2,22.5,18.7,57.9.4,93.2-32.8,62.9-66.2,120.7-99.3,173.4-38.7,62.9-134.6,46-170-15.5-29.8-50.7-60.3-99.8-91.8-147.3-35.7-52.7,9.5-101.3,85.2-104.6h0Z"/>
  </g>
  <path id="strawberry-hair" class="cls-3" d="M311.4,184.5c-2.9-17-18.9-28.3-35.9-25.5l-58.3,9.9-53.8,9.2,8.5-24,8.8-25c5.7-16.2-2.8-34-19-39.7s-33.9,2.8-39.7,19l-9.3,26.4-4.7,13.5-12.7-19.2-21.6-32.6c-9.5-14.3-28.8-18.3-43.1-8.8-14.3,9.5-18.3,28.8-8.8,43.1l68.1,102.9c.5.7,1,1.5,1.5,2.2,2.6,3.6,6.1,6.7,10.2,8.9,1.5.8,3,1.5,4.7,2.1,4.6,1.6,9.2,2.1,13.7,1.6.9-.1,1.8-.3,2.7-.4l163.4-27.8c17-2.9,28.3-19,25.5-35.9h-.2Z"/>
  <g id="white-eyes">
    <path class="cls-2" d="M221.2,261c-7.1-3.5-19.5-3.9-37.3-1-10.9,2.1-19.3,5.1-25.4,8.8-6,3.8-9.3,7.4-9.7,10.9-.9,7,.6,11.7,4.5,14.2,5.5,2.5,13.1,3.5,22.5,3,9.6-.7,19.9-2.7,31-5.9,8-2,13.7-5,17-9s4.6-7.7,3.9-11.1c-.9-5.2-3.1-8.5-6.6-9.9h.1Z"/>
    <path class="cls-2" d="M310,243.1c-7.1-3.5-19.5-3.9-37.3-1-10.9,2.1-19.3,5.1-25.4,8.8-6,3.8-9.3,7.4-9.7,10.9-.9,7,.6,11.7,4.5,14.2,5.5,2.5,13.1,3.5,22.5,3,9.6-.7,19.9-2.7,31-5.9,8-2,13.7-5,17-9s4.6-7.7,3.9-11.1c-.9-5.2-3.1-8.5-6.6-9.9h0Z"/>
  </g>
  <g id="strawberry-eyes">
    <rect class="cls-1" x="182.5" y="249.2" width="11.5" height="56.7" transform="translate(-71.8 65.8) rotate(-16.7)"/>
    <rect class="cls-1" x="268.6" y="229.7" width="11.5" height="56.7" transform="translate(-62.6 89.7) rotate(-16.7)"/>
  </g>

<script>
let svg = document.querySelector("#ic-strawberry");

function logID() {
console.log(this.id);
}

svg.addEventListener("click", logID);
</script>

</svg>