<?xml version="1.0" encoding="utf-8"?>
<!-- Generator: Adobe Illustrator 28.5.0, SVG Export Plug-In . SVG Version: 9.03 Build 54727)  -->
<svg version="1.0" id="Layer_1" xmlns="http://www.w3.org/2000/svg" xmlns:xlink="http://www.w3.org/1999/xlink" x="0px" y="0px"
	 viewBox="0 0 200 199.9" style="enable-background:new 0 0 200 199.9;" xml:space="preserve">
<style type="text/css">
	.st0{fill:url(#SVGID_1_);}
	.st1{fill:#00a44b;}
</style>
<radialGradient id="SVGID_1_" cx="-142.8513" cy="335.2815" r="8.6223" gradientTransform="matrix(30.2811 0 0 -30.263 4352.2676 10347.4551)" gradientUnits="userSpaceOnUse">
	<stop  offset="9.000000e-02" style="stop-color:#FA8F21"/>
	<stop  offset="0.78" style="stop-color:#D82D7E"/>
</radialGradient>
<path class="st0" d="M66.7,99.9c0-18.4,14.9-33.3,33.3-33.3s33.3,14.9,33.3,33.3c0,18.4-14.9,33.3-33.3,33.3S66.7,118.3,66.7,99.9z
	 M48.7,99.9c0,28.3,23,51.3,51.4,51.3c28.4,0,51.4-23,51.4-51.3s-23-51.3-51.4-51.3C71.6,48.6,48.7,71.6,48.7,99.9z M141.4,46.6
	c0,2.4,0.7,4.7,2,6.7c1.3,2,3.2,3.5,5.4,4.4c2.2,0.9,4.6,1.1,6.9,0.7c2.3-0.5,4.5-1.6,6.1-3.3c1.7-1.7,2.8-3.8,3.3-6.1
	c0.5-2.3,0.2-4.7-0.7-6.9c-0.9-2.2-2.4-4.1-4.4-5.4c-2-1.3-4.3-2-6.7-2h0c-3.2,0-6.2,1.3-8.5,3.5C142.7,40.4,141.4,43.4,141.4,46.6z
	 M59.6,181.3c-9.8-0.4-15-2.1-18.6-3.4c-4.7-1.8-8-4-11.5-7.5c-3.5-3.5-5.7-6.8-7.5-11.5c-1.4-3.5-3-8.8-3.4-18.6
	c-0.5-10.5-0.6-13.7-0.6-40.4c0-26.7,0.1-29.8,0.6-40.4c0.4-9.7,2.1-15,3.4-18.6c1.8-4.7,4-8,7.5-11.5C33,26,36.4,23.8,41,22
	c3.5-1.4,8.8-3,18.6-3.4C70.1,18.1,73.3,18,100,18s29.9,0.1,40.4,0.6c9.7,0.4,15,2.1,18.6,3.4c4.7,1.8,8,4,11.5,7.5
	c3.5,3.5,5.7,6.8,7.5,11.5c1.4,3.5,3,8.8,3.4,18.6c0.5,10.5,0.6,13.7,0.6,40.4c0,26.7-0.1,29.8-0.6,40.4c-0.4,9.7-2.1,15-3.4,18.6
	c-1.8,4.7-4,8-7.5,11.5c-3.5,3.5-6.8,5.7-11.5,7.5c-3.5,1.4-8.8,3-18.6,3.4c-10.5,0.5-13.7,0.6-40.4,0.6S70.1,181.8,59.6,181.3z
	 M58.8,0.6C48.1,1.1,40.9,2.8,34.5,5.2c-6.6,2.6-12.1,6-17.7,11.5c-5.6,5.6-9,11.1-11.5,17.7c-2.5,6.4-4.2,13.6-4.6,24.3
	C0.1,69.4,0,72.8,0,99.9c0,27.1,0.1,30.5,0.6,41.2c0.5,10.6,2.2,17.9,4.6,24.3c2.6,6.6,6,12.2,11.5,17.7c5.6,5.6,11.1,9,17.7,11.5
	c6.4,2.5,13.6,4.2,24.3,4.6c10.7,0.5,14.1,0.6,41.2,0.6c27.2,0,30.6-0.1,41.2-0.6c10.6-0.5,17.9-2.2,24.3-4.6
	c6.6-2.6,12.1-6,17.7-11.5c5.6-5.6,9-11.1,11.5-17.7c2.5-6.4,4.2-13.6,4.6-24.3c0.5-10.7,0.6-14.1,0.6-41.2
	c0-27.1-0.1-30.5-0.6-41.2c-0.5-10.6-2.2-17.9-4.6-24.3c-2.6-6.6-6-12.1-11.5-17.7c-5.6-5.6-11.1-9-17.7-11.5
	c-6.4-2.5-13.6-4.2-24.3-4.6C130.6,0.1,127.2,0,100,0S69.4,0.1,58.8,0.6z"/>
<path class="st1" d="M66.7,99.9c0-18.4,14.9-33.3,33.3-33.3s33.3,14.9,33.3,33.3c0,18.4-14.9,33.3-33.3,33.3S66.7,118.3,66.7,99.9z
	 M48.7,99.9c0,28.3,23,51.3,51.4,51.3c28.4,0,51.4-23,51.4-51.3s-23-51.3-51.4-51.3C71.6,48.6,48.7,71.6,48.7,99.9z M141.4,46.6
	c0,2.4,0.7,4.7,2,6.7c1.3,2,3.2,3.5,5.4,4.4c2.2,0.9,4.6,1.1,6.9,0.7c2.3-0.5,4.5-1.6,6.1-3.3c1.7-1.7,2.8-3.8,3.3-6.1
	c0.5-2.3,0.2-4.7-0.7-6.9c-0.9-2.2-2.4-4.1-4.4-5.4c-2-1.3-4.3-2-6.7-2h0c-3.2,0-6.2,1.3-8.5,3.5C142.7,40.4,141.4,43.4,141.4,46.6z
	 M59.6,181.3c-9.8-0.4-15-2.1-18.6-3.4c-4.7-1.8-8-4-11.5-7.5c-3.5-3.5-5.7-6.8-7.5-11.5c-1.4-3.5-3-8.8-3.4-18.6
	c-0.5-10.5-0.6-13.7-0.6-40.4c0-26.7,0.1-29.8,0.6-40.4c0.4-9.7,2.1-15,3.4-18.6c1.8-4.7,4-8,7.5-11.5C33,26,36.4,23.8,41,22
	c3.5-1.4,8.8-3,18.6-3.4C70.1,18.1,73.3,18,100,18s29.9,0.1,40.4,0.6c9.7,0.4,15,2.1,18.6,3.4c4.7,1.8,8,4,11.5,7.5
	c3.5,3.5,5.7,6.8,7.5,11.5c1.4,3.5,3,8.8,3.4,18.6c0.5,10.5,0.6,13.7,0.6,40.4c0,26.7-0.1,29.8-0.6,40.4c-0.4,9.7-2.1,15-3.4,18.6
	c-1.8,4.7-4,8-7.5,11.5c-3.5,3.5-6.8,5.7-11.5,7.5c-3.5,1.4-8.8,3-18.6,3.4c-10.5,0.5-13.7,0.6-40.4,0.6S70.1,181.8,59.6,181.3z
	 M58.8,0.6C48.1,1.1,40.9,2.8,34.5,5.2c-6.6,2.6-12.1,6-17.7,11.5c-5.6,5.6-9,11.1-11.5,17.7c-2.5,6.4-4.2,13.6-4.6,24.3
	C0.1,69.4,0,72.8,0,99.9c0,27.1,0.1,30.5,0.6,41.2c0.5,10.6,2.2,17.9,4.6,24.3c2.6,6.6,6,12.2,11.5,17.7c5.6,5.6,11.1,9,17.7,11.5
	c6.4,2.5,13.6,4.2,24.3,4.6c10.7,0.5,14.1,0.6,41.2,0.6c27.2,0,30.6-0.1,41.2-0.6c10.6-0.5,17.9-2.2,24.3-4.6
	c6.6-2.6,12.1-6,17.7-11.5c5.6-5.6,9-11.1,11.5-17.7c2.5-6.4,4.2-13.6,4.6-24.3c0.5-10.7,0.6-14.1,0.6-41.2
	c0-27.1-0.1-30.5-0.6-41.2c-0.5-10.6-2.2-17.9-4.6-24.3c-2.6-6.6-6-12.1-11.5-17.7c-5.6-5.6-11.1-9-17.7-11.5
	c-6.4-2.5-13.6-4.2-24.3-4.6C130.6,0.1,127.2,0,100,0S69.4,0.1,58.8,0.6z"/>
</svg>
