<?xml version="1.0" encoding="utf-8"?>
<!-- Generator: Adobe Illustrator 28.5.0, SVG Export Plug-In . SVG Version: 9.03 Build 54727)  -->
<svg version="1.0" id="Layer_1" xmlns="http://www.w3.org/2000/svg" xmlns:xlink="http://www.w3.org/1999/xlink" x="0px" y="0px"
	 viewBox="0 0 200 200" style="enable-background:new 0 0 200 200;" xml:space="preserve">
<style type="text/css">
	.st0{fill-rule:evenodd;clip-rule:evenodd;fill:#00a44b;}
</style>
<path class="st0" d="M14.8,0C6.6,0,0,6.4,0,14.3v171.3c0,7.9,6.6,14.3,14.8,14.3h170.4c8.2,0,14.8-6.4,14.8-14.3V14.3
	C200,6.4,193.4,0,185.2,0H14.8z M60.8,77.3v90H30.8v-90H60.8z M62.7,49.5c0,8.6-6.5,15.6-16.9,15.6v0h-0.2c-10,0-16.5-6.9-16.5-15.6
	c0-8.8,6.7-15.6,16.9-15.6C56.3,33.9,62.6,40.6,62.7,49.5z M107.3,167.4H77.3l0,0c0,0,0.4-81.6,0-90h29.9v12.7
	c4-6.1,11.1-14.9,27-14.9c19.7,0,34.5,12.9,34.5,40.5v51.6h-29.9v-48.2c0-12.1-4.3-20.4-15.2-20.4c-8.3,0-13.2,5.6-15.4,10.9
	c-0.8,1.9-1,4.6-1,7.3V167.4z"/>
</svg>
