<?xml version="1.0" encoding="utf-8"?>
<!-- Generator: Adobe Illustrator 28.5.0, SVG Export Plug-In . SVG Version: 9.03 Build 54727)  -->
<svg version="1.0" id="Layer_1" xmlns="http://www.w3.org/2000/svg" xmlns:xlink="http://www.w3.org/1999/xlink" x="0px" y="0px"
	 viewBox="0 0 200 200" style="enable-background:new 0 0 200 200;" xml:space="preserve">
<path d="M100,12.5c23.2,0,45.5,9.2,61.9,25.6c16.4,16.4,25.6,38.7,25.6,61.9s-9.2,45.5-25.6,61.9c-16.4,16.4-38.7,25.6-61.9,25.6
	s-45.5-9.2-61.9-25.6c-16.4-16.4-25.6-38.7-25.6-61.9s9.2-45.5,25.6-61.9C54.5,21.7,76.8,12.5,100,12.5z M100,200
	c26.5,0,52-10.5,70.7-29.3C189.5,152,200,126.5,200,100s-10.5-52-29.3-70.7C152,10.5,126.5,0,100,0S48,10.5,29.3,29.3S0,73.5,0,100
	s10.5,52,29.3,70.7C48,189.5,73.5,200,100,200z M62.5,93.8c-3.4,0-6.2,2.8-6.2,6.2s2.8,6.2,6.2,6.2h75c3.4,0,6.3-2.8,6.3-6.2
	s-2.8-6.2-6.3-6.2H62.5z"/>
</svg>
