<?xml version="1.0" encoding="UTF-8"?>
<svg xmlns="http://www.w3.org/2000/svg" version="1.1" viewBox="0 0 200 200">
  <defs>
    <style>
      .cls-1 {
        fill: #c33;
      }
    </style>
  </defs>
  <!-- Generator: Adobe Illustrator 28.6.0, SVG Export Plug-In . SVG Version: 1.2.0 Build 709)  -->
  <g>
    <g id="Layer_1">
      <path class="cls-1" d="M100,12.5c23.2,0,45.5,9.2,61.9,25.6,16.4,16.4,25.6,38.7,25.6,61.9s-9.2,45.5-25.6,61.9c-16.4,16.4-38.7,25.6-61.9,25.6s-45.5-9.2-61.9-25.6c-16.4-16.4-25.6-38.7-25.6-61.9s9.2-45.5,25.6-61.9c16.4-16.4,38.7-25.6,61.9-25.6ZM100,200c26.5,0,52-10.5,70.7-29.3,18.8-18.7,29.3-44.2,29.3-70.7s-10.5-52-29.3-70.7C152,10.5,126.5,0,100,0S48,10.5,29.3,29.3,0,73.5,0,100s10.5,52,29.3,70.7c18.7,18.8,44.2,29.3,70.7,29.3ZM62.5,93.8c-3.4,0-6.2,2.8-6.2,6.2s2.8,6.2,6.2,6.2h75c3.4,0,6.3-2.8,6.3-6.2s-2.8-6.2-6.3-6.2H62.5Z"/>
    </g>
  </g>
</svg>