<?xml version="1.0" encoding="utf-8"?>
<!-- Generator: Adobe Illustrator 28.5.0, SVG Export Plug-In . SVG Version: 9.03 Build 54727)  -->
<svg version="1.0" id="Layer_1" xmlns="http://www.w3.org/2000/svg" xmlns:xlink="http://www.w3.org/1999/xlink" x="0px" y="0px"
	 viewBox="0 0 235.7 77.5" style="enable-background:new 0 0 235.7 77.5;" xml:space="preserve">
<style type="text/css">
	.st0{fill:#FFFFFF;}
</style>
<g>
	<path class="st0" d="M47.3,61.3C34.5,63.6,20.3,63.5,4.9,61c-1.3-0.5-2.3-1.6-3-3.4c-1.7-5.6-2.3-8.9-1.7-9.8
		c0.7-1,2.3-1.5,4.8-1.4h11.8c3.6-0.2,4.4-1.4,2.6-3.4c-0.5-0.6-1.1-1-1.7-1.4C5.1,33.4,0.3,24.5,3.5,14.8C5.9,8.7,12.1,4.4,22,1.8
		C36.5-0.9,49.1-0.6,59.9,3c0.3,0.1,0.7,0.3,1,0.5c0.2,0.1,0.3,0.2,0.5,0.4c0.5,0.4,0.8,1,1,1.7c1.2,5.9,1.9,13.5,2.1,22.8
		c0,1.2-0.7,2.3-1.9,2.7c-0.1,0-0.3,0.1-0.4,0.1c-0.6,0.1-1.1,0.2-1.7,0.2l-15.9-0.4c-0.6,0-1.1,0.1-1.5,0.3
		c-0.7,0.3-0.7,1.3-0.1,1.8c10.1,8.3,14.8,15,14.1,20.3C55.7,57.5,52.6,60.2,47.3,61.3z"/>
	<path class="st0" d="M100.2,63.4c-5.6,0.4-11.6,0.4-18.1,0.1c-10.6-0.4-16.4-3.7-17.5-9.7C64,42.5,64.6,35.2,66.6,32
		c3.1-4,7.5-6.1,13-6.4c8.1-0.3,15.1-0.2,20.8,0.1c3.4,0.1,6,0.3,7.8,0.6c1.1,0.2,2.2,0.6,3,1.4c1.2,1.1,1.7,2.6,1.7,4.5
		c-0.1,18.1-0.6,32.1-1.5,42.1c-0.3,1.6-1.2,2.5-2.7,2.8c-2.2,0.5-4.1,0.6-7.2,0.2c-1.2-0.4-1.7-1.2-1.5-3
		C100.2,69.3,100.2,65.7,100.2,63.4z M94.4,47.9c0.8-0.2,1.3-0.8,1.5-1.6c0.3-2.1,0.3-3.7,0-5.1c-0.2-0.8-0.8-1.4-1.6-1.6
		c-2.7-0.6-6.3-0.6-10.8-0.1c-1.1,0.1-2,0.8-2.4,1.8c-0.3,0.8-0.3,1.9-0.1,3.6c0.3,1.6,1.1,2.6,2.4,2.9
		C89.4,48.4,93.1,48.4,94.4,47.9z"/>
	<path class="st0" d="M120.9,25c11.6,0.6,21.4,0.7,29.3,0.4c7.9-0.3,14.5-0.5,19.8-0.6c0.7,0,1.2,0.3,1.3,1c0.2,6,0.1,10.1-0.2,12
		c-0.1,0.8-0.6,1.6-1.4,1.9c-1.9,1-6.1,2.7-12.6,5.3c5.8-0.4,10.3-0.4,13.6,0c0.8,0.1,1.2,0.4,1.2,0.9c0.2,7,0.1,12.2-0.2,15.7
		c-0.1,0.7-0.5,1.3-1.1,1.5l0,0c-18.6,0.3-35.2,0.4-49.7,0.4c-0.7-0.2-1.2-0.5-1.2-1.1c-0.1-3.1,0-5.8,0.1-8.3
		c0.2-8.1,10.1-13.5,29.5-16.3c-19.1,0.3-28.8-0.1-29-1.1c-0.5-0.7-0.9-6.8-0.9-10.6C119.6,25.5,120.1,25.1,120.9,25z"/>
	<path class="st0" d="M176.5,62.2c0.2,0.8,0.9,1.2,2.2,1.1l12.5-0.2c0.7-0.2,1-0.6,0.8-1.1c-1-8.6-1.6-16.7-1.8-24.3
		c0-4.6,0.1-8.4,0.2-11.4c0-0.5-0.2-1-1.2-1l-10.4-0.1c-1.3-0.1-1.9,0.2-1.9,0.9c0,2.5,0.1,5,0.2,7.5c0.1,3.4,0,7.3-0.3,11.7
		C176.7,50.2,176.5,55.8,176.5,62.2z"/>
	<path class="st0" d="M211.5,37.5c0,2.8-0.1,5.6-0.1,8.4c0.1,0.6,0.6,0.9,1.4,1c5.9-0.1,10.7-0.4,14.4-1.1c3.5-0.7,5.9-0.9,7.2-0.7
		c0.5,0.1,0.9,0.6,1,1.1c0.4,5.8,0.4,10.3,0,13.5c-0.1,0.4-0.4,0.6-0.9,0.8c-14.3,3.3-25.6,3.7-33.8,1.2c-2.3-1.1-3.6-4.2-4-9.1
		c-0.3-7.9,0.3-19.7,1.7-35.5c0-0.4,0.2-0.8,0.6-1.1l0,0c3.5-2,7.4-2.4,12.1-1.9c1.2,0.3,0.9,1.7,0.9,1.9c0,3.6-0.3,5.4-0.3,8.4
		c0.1,1.6,1.2,2.1,3.4,1.9c4.4-0.5,7.9-0.8,11.6-0.8c0.2,0,0.4,0,0.6,0.1l0,0c0.5,0.2,0.9,0.7,1,1.3c0.3,4,0.4,7,0.3,8.9
		c0,0.4-0.2,0.7-0.5,0.9c0,0,0,0,0,0c-0.3,0.2-0.7,0.4-1.1,0.4C221.5,37.6,216.4,37.7,211.5,37.5z"/>
	<path class="st0" d="M110.7,11.3c-0.1-1.4-0.2-2.9-0.3-4.3c-0.1-0.7-0.1-1.4-0.2-2.1c0-0.1,0-0.3-0.1-0.6c0-0.1,0-0.1,0-0.2
		c0,0,0,0,0-0.1c0-0.1,0-0.1,0-0.1c0-0.3-0.1-0.7-0.1-1c0,0,0-0.1,0-0.1c-4,0.2-7.3,0.8-9.9,1.7c-3.3,1.2-5.2,2.6-5.7,4.2
		c-1.1,3.2-0.8,5.5,0.8,7c2.4,1.6,6,2.8,10.6,3.5c1.8,0.2,3.6,0.4,5.6,0.4C111.1,16.8,110.9,14.1,110.7,11.3z M131,6.7
		c-2.8-2.1-7.9-3.3-15.4-3.8c0.5,5.6,0.9,11.1,1.3,16.7c1.4-0.1,2.9-0.2,4.3-0.3c4.1-0.2,7.1-1.1,9-2.6c2-1.6,3-3.2,3-4.8
		C133.3,9.4,132.6,7.6,131,6.7z"/>
	<path class="st0" d="M175.1,8c-2.6-1.9-7.3-3.2-14-3.7c0.5,5.4,0.8,10.8,1.3,16.3c0,0.1,0,0.2,0,0.3c1-0.1,2-0.1,2.9-0.2
		c4.1-0.2,7.1-1.1,9-2.6c2-1.6,3-3.2,3-4.8C177.4,10.7,176.7,8.9,175.1,8z M156.1,11.3c-0.1-1.4-0.2-2.9-0.3-4.3
		c-0.1-0.7-0.1-1.4-0.2-2.1c0-0.1,0-0.4-0.1-0.6c0,0,0-0.1,0-0.1c0,0,0-0.1,0-0.1c0,0,0,0,0,0c-4.6,0.1-8.4,0.7-11.4,1.8
		c-3.3,1.2-5.2,2.6-5.7,4.2c-1.1,3.2-0.8,5.5,0.8,7c2.4,1.7,6,2.8,10.6,3.5c2.2,0.3,4.6,0.4,7,0.4c0-0.1,0-0.3,0-0.4
		C156.6,17.5,156.4,14.4,156.1,11.3z"/>
	<path class="st0" d="M155.6,4.3c0,0,0-0.1,0-0.1C155.6,4.2,155.6,4.2,155.6,4.3C155.6,4.2,155.6,4.2,155.6,4.3z"/>
</g>
</svg>
