<?xml version="1.0" encoding="UTF-8"?>
<svg xmlns="http://www.w3.org/2000/svg" version="1.1" viewBox="0 0 49.9 48.8">
  <defs>
    <style>
      .cls-1 {
        fill: #fff;
      }
    </style>
  </defs>
  <!-- Generator: Adobe Illustrator 28.6.0, SVG Export Plug-In . SVG Version: 1.2.0 Build 709)  -->
  <g>
    <g id="Layer_1">
      <path class="cls-1" d="M48.3,4.3c0-.5-.4-1-.7-1.3,0,0-.2-.2-.4-.3-.2-.2-.5-.3-.8-.4C38.1-.4,28.3-.7,17,1.4,9.3,3.4,4.6,6.7,2.7,11.4c-2.4,7.6,1.2,14.5,11,20.7.5.3.9.7,1.3,1.1,1.4,1.6.7,2.5-2,2.7H3.9c-1.9,0-3.2.4-3.7,1.1-.4.7,0,3.3,1.3,7.6.5,1.5,1.3,2.4,2.3,2.7,12,2,22.9,2,32.9.2,4.1-.8,6.6-2.9,7.4-6.2.5-4.1-3.1-9.4-10.9-15.8-.5-.4-.4-1.2,0-1.4.3-.1.7-.2,1.2-.2l12.4.3c.5,0,.9,0,1.3-.1,0,0,.2-.1.3-.1.9-.3,1.5-1.1,1.5-2.1-.2-7.2-.8-13.1-1.7-17.6ZM28.6,14.4c-2.5,0-4.4-.4-5.8-1.1-1-.7-1.3-1.9-.9-3.6.1-.9,1-1.7,2.7-2.6,1.3-.7,3-1.2,5.1-1.6h0c0,.2.1.3.1.5h0v.2c0,0,0,.3.1.3,0,.5.2.8.2,1.2.2.7.3,1.5.5,2.2.3,1.4.6,2.9.9,4.3-1,.2-2,.2-2.9.2ZM41.3,11.4c-.9,1-2.4,1.6-4.6,2-.8.2-1.5.3-2.3.5-.6-2.9-1.2-5.8-1.8-8.7,4-.3,6.8,0,8.3.9.9.4,1.4,1.2,1.6,2.6,0,.8-.3,1.7-1.2,2.7Z"/>
    </g>
  </g>
</svg>