<?xml version="1.0" encoding="utf-8"?>
<!-- Generator: Adobe Illustrator 28.5.0, SVG Export Plug-In . SVG Version: 9.03 Build 54727)  -->
<svg version="1.0" id="Layer_1" xmlns="http://www.w3.org/2000/svg" xmlns:xlink="http://www.w3.org/1999/xlink" x="0px" y="0px"
	 viewBox="0 0 49.9 48.8" style="enable-background:new 0 0 49.9 48.8;" xml:space="preserve">
<style type="text/css">
	.st0{fill:#00A44F;}
</style>
<g>
	<path class="st0" d="M48.3,4.3c-0.1-0.5-0.4-1-0.7-1.3c-0.1-0.1-0.2-0.2-0.4-0.3c-0.2-0.2-0.5-0.3-0.8-0.4
		C38.1-0.4,28.3-0.7,17,1.4c-7.7,2-12.4,5.3-14.3,10c-2.4,7.6,1.2,14.5,11,20.7c0.5,0.3,0.9,0.7,1.3,1.1c1.4,1.6,0.7,2.5-2,2.7H3.9
		c-1.9,0-3.2,0.4-3.7,1.1c-0.4,0.7,0,3.3,1.3,7.6C2,46.1,2.8,47,3.8,47.3c12,2,22.9,2,32.9,0.2c4.1-0.8,6.6-2.9,7.4-6.2
		c0.5-4.1-3.1-9.4-10.9-15.8c-0.5-0.4-0.4-1.2,0.1-1.4c0.3-0.1,0.7-0.2,1.2-0.2l12.4,0.3c0.5,0,0.9,0,1.3-0.1c0.1,0,0.2-0.1,0.3-0.1
		c0.9-0.3,1.5-1.1,1.5-2.1C49.8,14.7,49.2,8.8,48.3,4.3z M28.6,14.4c-2.5,0-4.4-0.4-5.8-1.1c-1-0.7-1.3-1.9-0.9-3.6
		C22,8.8,22.9,8,24.6,7.1c1.3-0.7,3-1.2,5.1-1.6c0,0,0,0,0,0c0,0.2,0.1,0.3,0.1,0.5c0,0,0,0,0,0.1v0c0,0,0,0.1,0,0.1
		c0,0.1,0,0.3,0.1,0.3C30,7,30.1,7.3,30.1,7.7c0.2,0.7,0.3,1.5,0.5,2.2c0.3,1.4,0.6,2.9,0.9,4.3C30.5,14.4,29.5,14.4,28.6,14.4z
		 M41.3,11.4c-0.9,1-2.4,1.6-4.6,2c-0.8,0.2-1.5,0.3-2.3,0.5c-0.6-2.9-1.2-5.8-1.8-8.7c4-0.3,6.8,0,8.3,0.9c0.9,0.4,1.4,1.2,1.6,2.6
		C42.6,9.5,42.2,10.4,41.3,11.4z"/>
</g>
</svg>
