<?xml version="1.0" encoding="utf-8"?>
<!-- Generator: Adobe Illustrator 28.5.0, SVG Export Plug-In . SVG Version: 9.03 Build 54727)  -->
<svg version="1.0" id="Layer_1" xmlns="http://www.w3.org/2000/svg" xmlns:xlink="http://www.w3.org/1999/xlink" x="0px" y="0px"
	 viewBox="0 0 200 234.2" style="enable-background:new 0 0 200 234.2;" xml:space="preserve">
<style type="text/css">
	.st0{fill:#00a44b;}
</style>
<path class="st0" d="M65.3,234.2c-7.6-2.2-15.5-3.5-22.7-6.6c-29.4-12.9-45-40.7-42.3-74.2C2.7,122.5,23.6,96,51.8,88.1
	c10-2.8,23.6-3.3,32-1.2v41.8c-5.3,0.3-10.6,0.1-15.8,0.9c-15.9,2.6-26.2,14.7-26.7,30.7c-0.5,16.9,7.9,28.3,23.4,32
	c15.6,3.7,31.9-3.6,37.7-18c2.5-6.3,3-13.7,3-20.6c0.2-49.3,0.1-98.6,0.1-148V0h39.2c3.1,33.9,19.5,55.2,55.3,58.5v39.9
	C180.1,97,161.7,92,145,79v5.5c0,24.6,0,49.2-0.1,73.8c0,13.1-2.3,25.8-8.2,37.7c-10.4,21.1-27.4,33.4-50.6,37.3
	c-1.2,0.2-2.3,0.6-3.5,0.9L65.3,234.2z"/>
</svg>
