<?xml version="1.0" encoding="utf-8"?>
<!-- Generator: Adobe Illustrator 28.5.0, SVG Export Plug-In . SVG Version: 9.03 Build 54727)  -->
<svg version="1.0" id="Layer_1" xmlns="http://www.w3.org/2000/svg" xmlns:xlink="http://www.w3.org/1999/xlink" x="0px" y="0px"
	 viewBox="0 0 200 140.4" style="enable-background:new 0 0 200 140.4;" xml:space="preserve">
<style type="text/css">
	.st0{fill-rule:evenodd;clip-rule:evenodd;fill:#00a44b;}
</style>
<path class="st0" d="M178.1,4.2c8.6,2.3,15.4,9.1,17.7,17.7c4.2,15.6,4.2,48.3,4.2,48.3s0,32.6-4.2,48.3
	c-2.3,8.6-9.1,15.4-17.7,17.7c-15.6,4.2-78.1,4.2-78.1,4.2s-62.5,0-78.1-4.2c-8.6-2.3-15.4-9.1-17.7-17.7C0,102.8,0,70.2,0,70.2
	s0-32.6,4.2-48.3c2.3-8.6,9.1-15.4,17.7-17.7C37.5,0,100,0,100,0S162.6,0,178.1,4.2z M79,102.2L136.5,69L79,35.8V102.2z"/>
</svg>
